<?xml version="1.0" encoding="utf-8"?>
<!-- Generator: Adobe Illustrator 25.2.1, SVG Export Plug-In . SVG Version: 6.00 Build 0)  -->
<svg version="1.1" id="Capa_1" xmlns="http://www.w3.org/2000/svg" xmlns:xlink="http://www.w3.org/1999/xlink" x="0px" y="0px"
	 viewBox="0 0 689.4 745.6" style="enable-background:new 0 0 689.4 745.6;" xml:space="preserve">
<style type="text/css">
	.st0{fill:none;stroke:#BF1E51;stroke-width:3;stroke-linecap:round;stroke-miterlimit:10;stroke-dasharray:16.9185,16.9185;}
	.st1{fill:#FDC295;}
	.st2{fill:#91B3FA;}
	.st3{fill:url(#SVGID_1_);}
	.st4{fill:url(#SVGID_2_);}
	.st5{fill:url(#SVGID_3_);}
	.st6{fill:url(#SVGID_4_);}
	.st7{fill:url(#SVGID_5_);}
	.st8{fill:url(#SVGID_6_);}
	.st9{fill:url(#SVGID_7_);}
	.st10{fill:url(#SVGID_8_);}
	.st11{fill:url(#SVGID_9_);}
	.st12{fill:url(#SVGID_10_);}
	.st13{fill:url(#SVGID_11_);}
	.st14{fill:url(#SVGID_12_);}
	.st15{opacity:0.61;}
	.st16{fill:#FFFFFF;}
	.st17{fill:url(#SVGID_13_);}
	.st18{fill:url(#SVGID_14_);}
	.st19{fill:#BDD0FB;}
	.st20{fill:url(#SVGID_15_);}
	.st21{fill:url(#SVGID_16_);}
	.st22{opacity:0.59;}
	.st23{fill:url(#SVGID_17_);}
	.st24{fill:url(#SVGID_18_);}
	.st25{fill:url(#SVGID_19_);}
	.st26{fill:url(#SVGID_20_);}
	.st27{opacity:0.51;}
	.st28{fill:url(#SVGID_21_);}
	.st29{fill:url(#SVGID_22_);}
	.st30{fill:url(#SVGID_23_);}
	.st31{fill:url(#SVGID_24_);}
	.st32{fill:url(#SVGID_25_);}
	.st33{fill:url(#SVGID_26_);}
	.st34{fill:url(#SVGID_27_);}
	.st35{fill:url(#SVGID_28_);}
	.st36{fill:url(#SVGID_29_);}
	.st37{fill:url(#SVGID_30_);}
	.st38{fill:url(#SVGID_31_);}
	.st39{fill:url(#SVGID_32_);}
	.st40{fill:url(#SVGID_33_);}
	.st41{fill:url(#SVGID_34_);}
	.st42{fill:url(#SVGID_35_);}
	.st43{fill:url(#SVGID_36_);}
	.st44{fill:url(#SVGID_37_);}
	.st45{fill:#F1645B;}
	.st46{fill:url(#SVGID_38_);}
	.st47{fill:url(#SVGID_39_);}
	.st48{fill:url(#SVGID_40_);}
	.st49{fill:url(#SVGID_41_);}
	.st50{fill:url(#SVGID_42_);}
	.st51{fill:url(#SVGID_43_);}
	.st52{fill:url(#SVGID_44_);}
	.st53{fill:url(#SVGID_45_);}
	.st54{fill:url(#SVGID_46_);}
	.st55{fill:url(#SVGID_47_);}
	.st56{fill:url(#SVGID_48_);}
	.st57{fill:url(#SVGID_49_);}
	.st58{fill:url(#SVGID_50_);}
	.st59{fill:url(#SVGID_51_);}
	.st60{fill:url(#SVGID_52_);}
</style>
<g>
	<g>
		<path class="st0" d="M204,110.4c-47.6,38.2-73.5,83.6-80.7,95.8c-66,110.7-79.3,278.5,5.8,385c56.2,70.4,134,87.2,174.3,95.9
			c27.3,5.9,155.5,30,263.9-52.7c9.2-7,20.9-16,33.2-29.8c93.5-104.7,103.4-355.1-35.6-479c-66.2-59-157.7-81-236.1-70.1
			c-31,4.3-58.2,14-81.9,26.6L204,110.4z"/>
	</g>
	<path class="st1" d="M583.3,602.5c-13.1,13.8-25.5,22.7-35.4,29.8C432.6,715,296.1,690.9,267.1,685
		c-42.8-8.7-125.6-25.5-185.5-95.9c-90.5-106.5-76.4-274.3-6.2-385c12.8-20.3,80.7-132.7,218.6-150.7
		c83.5-10.9,180.8,11.1,251.3,70.1C693.2,247.4,682.7,497.8,583.3,602.5z"/>
	<g>
		<g>
			<g>
				
					<ellipse transform="matrix(0.7071 -0.7071 0.7071 0.7071 -25.8337 450.1555)" class="st2" cx="530.5" cy="256.3" rx="97.2" ry="97.2"/>
				<g>
					
						<linearGradient id="SVGID_1_" gradientUnits="userSpaceOnUse" x1="602.7356" y1="585.5686" x2="415.9734" y2="337.6117" gradientTransform="matrix(1 0 0 -1 0 745.8898)">
						<stop  offset="0" style="stop-color:#4042E2"/>
						<stop  offset="1" style="stop-color:#4F52FF"/>
					</linearGradient>
					<circle class="st3" cx="530.5" cy="256.3" r="82.9"/>
					
						<linearGradient id="SVGID_2_" gradientUnits="userSpaceOnUse" x1="444.5636" y1="489.6297" x2="616.3845" y2="489.6297" gradientTransform="matrix(1 0 0 -1 0 745.8898)">
						<stop  offset="0" style="stop-color:#DAE3FE"/>
						<stop  offset="1" style="stop-color:#E9EFFD"/>
					</linearGradient>
					<path class="st4" d="M530.5,342.2c-47.4,0-85.9-38.5-85.9-85.9c0-47.4,38.5-85.9,85.9-85.9s85.9,38.5,85.9,85.9
						C616.4,303.6,577.8,342.2,530.5,342.2z M530.5,176.3c-44.1,0-80,35.9-80,80c0,44.1,35.9,80,80,80c44.1,0,80-35.9,80-80
						C610.5,212.2,574.6,176.3,530.5,176.3z"/>
				</g>
				<g>
					
						<linearGradient id="SVGID_3_" gradientUnits="userSpaceOnUse" x1="602.7355" y1="585.5686" x2="415.9737" y2="337.612" gradientTransform="matrix(1 0 0 -1 0 745.8898)">
						<stop  offset="0" style="stop-color:#4042E2"/>
						<stop  offset="1" style="stop-color:#4F52FF"/>
					</linearGradient>
					<circle class="st5" cx="530.5" cy="256.3" r="50.6"/>
					
						<linearGradient id="SVGID_4_" gradientUnits="userSpaceOnUse" x1="476.9405" y1="489.6388" x2="584.0076" y2="489.6388" gradientTransform="matrix(1 0 0 -1 0 745.8898)">
						<stop  offset="0" style="stop-color:#DAE3FE"/>
						<stop  offset="1" style="stop-color:#E9EFFD"/>
					</linearGradient>
					<path class="st6" d="M530.5,309.8c-29.5,0-53.5-24-53.5-53.5c0-29.5,24-53.5,53.5-53.5c29.5,0,53.5,24,53.5,53.5
						S560,309.8,530.5,309.8z M530.5,208.7c-26.2,0-47.6,21.4-47.6,47.6c0,26.2,21.4,47.6,47.6,47.6c26.3,0,47.6-21.4,47.6-47.6
						C578.1,230,556.7,208.7,530.5,208.7z"/>
				</g>
				<g>
					
						<linearGradient id="SVGID_5_" gradientUnits="userSpaceOnUse" x1="602.7355" y1="585.5686" x2="415.9739" y2="337.6122" gradientTransform="matrix(1 0 0 -1 0 745.8898)">
						<stop  offset="0" style="stop-color:#FE7062"/>
						<stop  offset="1" style="stop-color:#FF928E"/>
					</linearGradient>
					<circle class="st7" cx="530.5" cy="256.3" r="19.6"/>
					
						<linearGradient id="SVGID_6_" gradientUnits="userSpaceOnUse" x1="507.9171" y1="489.6298" x2="553.031" y2="489.6298" gradientTransform="matrix(1 0 0 -1 0 745.8898)">
						<stop  offset="0" style="stop-color:#DAE3FE"/>
						<stop  offset="1" style="stop-color:#E9EFFD"/>
					</linearGradient>
					<path class="st8" d="M530.5,278.8c-12.4,0-22.6-10.1-22.6-22.6c0-12.4,10.1-22.6,22.6-22.6c12.4,0,22.6,10.1,22.6,22.6
						C553,268.7,542.9,278.8,530.5,278.8z M530.5,239.6c-9.2,0-16.6,7.5-16.6,16.6c0,9.2,7.5,16.6,16.6,16.6
						c9.2,0,16.6-7.5,16.6-16.6C547.1,247.1,539.6,239.6,530.5,239.6z"/>
				</g>
			</g>
			<g>
				
					<linearGradient id="SVGID_7_" gradientUnits="userSpaceOnUse" x1="-854.6698" y1="970.55" x2="-877.6694" y2="877.1142" gradientTransform="matrix(-0.7071 -0.7071 -0.7071 0.7071 590.6656 -1040.1696)">
					<stop  offset="0" style="stop-color:#09005D"/>
					<stop  offset="1" style="stop-color:#1A0F91"/>
				</linearGradient>
				<polygon class="st9" points="621.8,165.2 623.9,167.2 546.9,244.2 544.8,242.2 				"/>
				
					<linearGradient id="SVGID_8_" gradientUnits="userSpaceOnUse" x1="-874.2839" y1="950.9103" x2="-881.3119" y2="875.5189" gradientTransform="matrix(-0.7071 -0.7071 -0.7071 0.7071 590.6656 -1040.1696)">
					<stop  offset="0" style="stop-color:#09005D"/>
					<stop  offset="1" style="stop-color:#1A0F91"/>
				</linearGradient>
				<path class="st10" d="M546.3,237.3c1.2-1.2,6.7,4.3,5.5,5.5l-20.4,16c-0.8,0.6-1.7-0.4-1.1-1.1L546.3,237.3z"/>
				
					<linearGradient id="SVGID_9_" gradientUnits="userSpaceOnUse" x1="602.238" y1="567.7842" x2="634.175" y2="567.7842" gradientTransform="matrix(1 0 0 -1 0 745.8898)">
					<stop  offset="0" style="stop-color:#4042E2"/>
					<stop  offset="1" style="stop-color:#4F52FF"/>
				</linearGradient>
				<path class="st11" d="M623.8,167.3l10.4,1L620,182.5c-4.7,4.7-11.2,7-17.7,6.3l0,0L623.8,167.3z"/>
				
					<linearGradient id="SVGID_10_" gradientUnits="userSpaceOnUse" x1="600.0916" y1="575.0464" x2="621.7791" y2="575.0464" gradientTransform="matrix(1 0 0 -1 0 745.8898)">
					<stop  offset="0" style="stop-color:#4042E2"/>
					<stop  offset="1" style="stop-color:#4F52FF"/>
				</linearGradient>
				<path class="st12" d="M621.8,165.2l-1-10.4l-14.2,14.2c-4.7,4.7-7,11.2-6.3,17.7l0,0L621.8,165.2z"/>
			</g>
		</g>
		<g>
			<g>
				
					<linearGradient id="SVGID_11_" gradientUnits="userSpaceOnUse" x1="597.4834" y1="322.2613" x2="471.7165" y2="278.9975" gradientTransform="matrix(1 0 0 -1 0 745.8898)">
					<stop  offset="0" style="stop-color:#FE7062"/>
					<stop  offset="1" style="stop-color:#FF928E"/>
				</linearGradient>
				<path class="st13" d="M611.9,589H485.2V306.2c0-11,8.9-20,20-20H592c11,0,20,8.9,20,20V589z"/>
				
					<linearGradient id="SVGID_12_" gradientUnits="userSpaceOnUse" x1="436.233" y1="239.1953" x2="673.9711" y2="438.4905" gradientTransform="matrix(1 0 0 -1 0 745.8898)">
					<stop  offset="0" style="stop-color:#FE7062"/>
					<stop  offset="1" style="stop-color:#FF928E"/>
				</linearGradient>
				<path class="st14" d="M574.6,589H447.8V309.7c0-13,10.5-23.5,23.5-23.5h79.8c13,0,23.5,10.5,23.5,23.5V589z"/>
				<g class="st15">
					<path class="st16" d="M458.3,338.9c-0.4,0-0.8-0.4-0.8-0.8v-22c0-11.6,9.4-21,21-21h33.3c0.4,0,0.8,0.4,0.8,0.8
						c0,0.4-0.4,0.8-0.8,0.8h-33.3c-10.7,0-19.4,8.7-19.4,19.4v22C459.1,338.5,458.7,338.9,458.3,338.9z"/>
					<path class="st16" d="M458.3,362.2c-0.4,0-0.8-0.4-0.8-0.8v-8.9c0-0.4,0.4-0.8,0.8-0.8c0.4,0,0.8,0.4,0.8,0.8v8.9
						C459.1,361.8,458.7,362.2,458.3,362.2z"/>
				</g>
			</g>
			<g>
				
					<linearGradient id="SVGID_13_" gradientUnits="userSpaceOnUse" x1="429.5076" y1="276.7692" x2="574.2557" y2="272.4093" gradientTransform="matrix(1 0 0 -1 0 745.8898)">
					<stop  offset="0" style="stop-color:#4042E2"/>
					<stop  offset="1" style="stop-color:#4F52FF"/>
				</linearGradient>
				<path class="st17" d="M473,589H367.2V363.4c0-8.4,6.8-15.1,15.1-15.1h75.5c8.4,0,15.1,6.8,15.1,15.1V589z"/>
				
					<linearGradient id="SVGID_14_" gradientUnits="userSpaceOnUse" x1="337.7853" y1="188.8183" x2="449.6659" y2="368.416" gradientTransform="matrix(1 0 0 -1 0 745.8898)">
					<stop  offset="0" style="stop-color:#4042E2"/>
					<stop  offset="1" style="stop-color:#4F52FF"/>
				</linearGradient>
				<path class="st18" d="M441.8,589H336V366.1c0-9.9,8-17.9,17.9-17.9h70c9.9,0,17.9,8,17.9,17.9V589z"/>
				<g>
					<path class="st19" d="M344.8,392.2c-0.4,0-0.7-0.3-0.7-0.7v-18.3c0-9.6,7.8-17.5,17.5-17.5h27.8c0.4,0,0.7,0.3,0.7,0.7
						c0,0.4-0.3,0.7-0.7,0.7h-27.8c-8.9,0-16.1,7.2-16.1,16.1v18.3C345.4,391.9,345.1,392.2,344.8,392.2z"/>
					<path class="st19" d="M344.8,411.6c-0.4,0-0.7-0.3-0.7-0.7v-7.5c0-0.4,0.3-0.7,0.7-0.7c0.4,0,0.7,0.3,0.7,0.7v7.5
						C345.4,411.3,345.1,411.6,344.8,411.6z"/>
				</g>
			</g>
			<g>
				
					<linearGradient id="SVGID_15_" gradientUnits="userSpaceOnUse" x1="384.693" y1="301.4462" x2="286.006" y2="223.4836" gradientTransform="matrix(1 0 0 -1 0 745.8898)">
					<stop  offset="0" style="stop-color:#FE7062"/>
					<stop  offset="1" style="stop-color:#FF928E"/>
				</linearGradient>
				<path class="st20" d="M370.5,589.7H263.1V414.4c0-9,7.3-16.3,16.3-16.3h74.7c9,0,16.3,7.3,16.3,16.3V589.7L370.5,589.7z"/>
				
					<linearGradient id="SVGID_16_" gradientUnits="userSpaceOnUse" x1="228.5695" y1="131.6801" x2="324.0075" y2="309.7652" gradientTransform="matrix(1 0 0 -1 0 745.8898)">
					<stop  offset="0" style="stop-color:#FE7062"/>
					<stop  offset="1" style="stop-color:#FF928E"/>
				</linearGradient>
				<path class="st21" d="M343.2,589.7H235.8V415.8c0-9.8,7.9-17.7,17.7-17.7h72c9.8,0,17.7,7.9,17.7,17.7V589.7z"/>
				<g class="st22">
					<path class="st16" d="M243,433.9c-0.4,0-0.7-0.3-0.7-0.7v-13.6c0-7.2,5.9-13.1,13.1-13.1h20.6c0.4,0,0.7,0.3,0.7,0.7
						c0,0.4-0.3,0.7-0.7,0.7h-20.6c-6.5,0-11.8,5.3-11.8,11.8v13.6C243.7,433.6,243.4,433.9,243,433.9z"/>
					<path class="st16" d="M243,448.3c-0.4,0-0.7-0.3-0.7-0.7v-5.5c0-0.4,0.3-0.7,0.7-0.7c0.4,0,0.7,0.3,0.7,0.7v5.5
						C243.7,448,243.4,448.3,243,448.3z"/>
				</g>
			</g>
			<g>
				
					<linearGradient id="SVGID_17_" gradientUnits="userSpaceOnUse" x1="174.3115" y1="224.8234" x2="297.8112" y2="221.1035" gradientTransform="matrix(1 0 0 -1 0 745.8898)">
					<stop  offset="0" style="stop-color:#4042E2"/>
					<stop  offset="1" style="stop-color:#4F52FF"/>
				</linearGradient>
				<path class="st23" d="M261.5,589.7h-92.5v-116c0-10.7,8.6-19.3,19.3-19.3h53.9c10.7,0,19.3,8.6,19.3,19.3L261.5,589.7
					L261.5,589.7z"/>
				
					<linearGradient id="SVGID_18_" gradientUnits="userSpaceOnUse" x1="-39.8414" y1="150.2263" x2="182.1267" y2="219.4279" gradientTransform="matrix(1 0 0 -1 0 745.8898)">
					<stop  offset="0" style="stop-color:#4042E2"/>
					<stop  offset="1" style="stop-color:#4F52FF"/>
				</linearGradient>
				<path class="st24" d="M234.2,589.7h-92.5V474.4c0-11.1,9-20,20-20h52.4c11.1,0,20,9,20,20V589.7z"/>
				<g>
					<path class="st19" d="M149.3,492.9c-0.4,0-0.7-0.3-0.7-0.7v-16c0-8.5,6.9-15.4,15.4-15.4h24.3c0.4,0,0.7,0.3,0.7,0.7
						c0,0.4-0.3,0.7-0.7,0.7H164c-7.7,0-14,6.3-14,14v16C150,492.6,149.7,492.9,149.3,492.9z"/>
					<path class="st19" d="M149.3,509.9c-0.4,0-0.7-0.3-0.7-0.7v-6.5c0-0.4,0.3-0.7,0.7-0.7c0.4,0,0.7,0.3,0.7,0.7v6.5
						C150,509.6,149.7,509.9,149.3,509.9z"/>
				</g>
			</g>
			<g>
				
					<linearGradient id="SVGID_19_" gradientUnits="userSpaceOnUse" x1="157.5632" y1="215.447" x2="86.1813" y2="146.0479" gradientTransform="matrix(1 0 0 -1 0 745.8898)">
					<stop  offset="0" style="stop-color:#FE7062"/>
					<stop  offset="1" style="stop-color:#FF928E"/>
				</linearGradient>
				<path class="st25" d="M172.8,589.7H80.2v-51.3c0-8.8,7.1-16,16-16h60.6c8.8,0,16,7.1,16,16V589.7z"/>
				
					<linearGradient id="SVGID_20_" gradientUnits="userSpaceOnUse" x1="22.6398" y1="110.8849" x2="171.6796" y2="254.9895" gradientTransform="matrix(1 0 0 -1 0 745.8898)">
					<stop  offset="0" style="stop-color:#FE7062"/>
					<stop  offset="1" style="stop-color:#FF928E"/>
				</linearGradient>
				<path class="st26" d="M145.5,589.7H53v-50.1c0-9.4,7.7-17.1,17.1-17.1h58.3c9.4,0,17.1,7.7,17.1,17.1V589.7z"/>
				<g class="st27">
					<path class="st16" d="M59.5,559.9c-0.4,0-0.7-0.3-0.7-0.7v-16c0-8.5,6.9-15.4,15.4-15.4h24.3c0.4,0,0.7,0.3,0.7,0.7
						c0,0.4-0.3,0.7-0.7,0.7H74.2c-7.7,0-14,6.3-14,14v16C60.2,559.6,59.9,559.9,59.5,559.9z"/>
					<path class="st16" d="M59.5,576.9c-0.4,0-0.7-0.3-0.7-0.7v-6.5c0-0.4,0.3-0.7,0.7-0.7c0.4,0,0.7,0.3,0.7,0.7v6.5
						C60.2,576.5,59.9,576.9,59.5,576.9z"/>
				</g>
			</g>
		</g>
		<g>
			
				<linearGradient id="SVGID_21_" gradientUnits="userSpaceOnUse" x1="-386.1618" y1="410.6073" x2="-464.463" y2="453.762" gradientTransform="matrix(0.9862 -0.1656 -0.1656 -0.9862 836.3307 549.989)">
				<stop  offset="0" style="stop-color:#4042E2"/>
				<stop  offset="1" style="stop-color:#4F52FF"/>
			</linearGradient>
			<path class="st28" d="M370.5,185.7l-9.4,21.6c7.8,10.5,15.4,15.7,22.5,17.6c0-7.3,3.2-14,5.6-18
				C376.4,202.2,370.5,185.7,370.5,185.7z"/>
			
				<linearGradient id="SVGID_22_" gradientUnits="userSpaceOnUse" x1="-393.9314" y1="383.4721" x2="-321.1719" y2="459.5089" gradientTransform="matrix(0.9862 -0.1656 -0.1656 -0.9862 836.3307 549.989)">
				<stop  offset="0" style="stop-color:#FF928E"/>
				<stop  offset="1" style="stop-color:#FEB3B1"/>
			</linearGradient>
			<path class="st29" d="M417.4,198.6c-11.7,9.8-21,11-28.2,8.3c-2.5,4-5.7,10.7-5.6,18c22.4,6.1,39.2-21.5,39.2-21.5L417.4,198.6z"
				/>
			
				<linearGradient id="SVGID_23_" gradientUnits="userSpaceOnUse" x1="-386.5809" y1="376.4375" x2="-313.8206" y2="452.4753" gradientTransform="matrix(0.9862 -0.1656 -0.1656 -0.9862 836.3307 549.989)">
				<stop  offset="0" style="stop-color:#FF928E"/>
				<stop  offset="1" style="stop-color:#FEB3B1"/>
			</linearGradient>
			<path class="st30" d="M418.7,201.8c0,0-4.5-5.5-0.3-11c0,0,1.3-2.1,3.5,0.3c0,0,4.6-5.8,6.4-4.1s6.6,6,3.7,12.2
				C429.1,205.5,420.8,204.3,418.7,201.8z"/>
			
				<linearGradient id="SVGID_24_" gradientUnits="userSpaceOnUse" x1="422.8293" y1="558.4858" x2="422.8293" y2="462.7828" gradientTransform="matrix(1 0 0 -1 0 745.8898)">
				<stop  offset="0" style="stop-color:#FF928E"/>
				<stop  offset="1" style="stop-color:#FEB3B1"/>
			</linearGradient>
			<path class="st31" d="M423.4,197.6c-0.5,0.1-1.1,0.1-1.7-0.1c-0.5-0.2-1.3-0.7-1.7-2c-0.1-0.4,0.1-0.8,0.5-1
				c0.4-0.1,0.8,0.1,1,0.5c0.2,0.8,0.6,0.9,0.7,1c0.4,0.2,1.1,0,1.5-0.1l-1.8-3.6c-0.2-0.4,0-0.8,0.3-1c0.4-0.2,0.8,0,1,0.3l2.2,4.3
				c0.2,0.4,0.1,0.8-0.3,1C425.1,197,424.4,197.5,423.4,197.6z"/>
			<path class="st2" d="M255.9,360.1c-1,0.9-1.3,2.4-0.8,3.7c2,5.3,7.9,19.3,17.8,26.5c0.7,0.5,1.5,0.3,1.9-0.3
				c-2.5-1.9-5.8-5.2-10-11.2C258.3,369.8,256.4,363.8,255.9,360.1z"/>
			
				<linearGradient id="SVGID_25_" gradientUnits="userSpaceOnUse" x1="-540.9673" y1="267.7648" x2="-524.8971" y2="267.7648" gradientTransform="matrix(0.9862 -0.1656 -0.1656 -0.9862 836.3307 549.989)">
				<stop  offset="0" style="stop-color:#09005D"/>
				<stop  offset="1" style="stop-color:#1A0F91"/>
			</linearGradient>
			<path class="st32" d="M266.8,358.1c0,0-5.9-2-10.8,2c0,0,0,0,0,0c0.5,3.7,2.4,9.6,8.8,18.8c4.2,5.9,7.5,9.3,10,11.2
				c0.1-0.2,0.2-0.4,0.3-0.7C275.6,383.6,276.4,367.8,266.8,358.1z"/>
			
				<linearGradient id="SVGID_26_" gradientUnits="userSpaceOnUse" x1="-532.9482" y1="284.0104" x2="-521.1328" y2="284.0104" gradientTransform="matrix(0.9862 -0.1656 -0.1656 -0.9862 836.3307 549.989)">
				<stop  offset="0" style="stop-color:#FF928E"/>
				<stop  offset="1" style="stop-color:#FEB3B1"/>
			</linearGradient>
			<path class="st33" d="M274.7,357.1l-4.1,5.6c-0.7,1-2,1.3-3.2,0.8c-1-0.4-2.1-1.2-3-2.7c-0.5-0.9-0.5-2,0-2.8l4-6.2
				c1-1.5,3.1-1.6,4.2-0.3l2,2.3C275.4,354.8,275.4,356.2,274.7,357.1z"/>
			<path class="st2" d="M424.6,305.8c1.1,0.8,2.6,0.8,3.8,0.1c4.8-3,17.3-11.7,22.3-22.8c0.3-0.7,0-1.5-0.7-1.8
				c-1.3,2.8-3.9,6.7-8.9,12C433.6,301.5,428.1,304.6,424.6,305.8z"/>
			
				<linearGradient id="SVGID_27_" gradientUnits="userSpaceOnUse" x1="1045.1554" y1="645.2066" x2="1072.4451" y2="645.2066" gradientTransform="matrix(0.9894 0.1452 0.1452 -0.9894 -706.6918 777.7944)">
				<stop  offset="0" style="stop-color:#09005D"/>
				<stop  offset="1" style="stop-color:#1A0F91"/>
			</linearGradient>
			<path class="st34" d="M420.4,295.6c0,0-0.8,6.2,4.2,10.2c0,0,0,0,0,0c3.5-1.2,8.9-4.3,16.6-12.4c5-5.3,7.6-9.2,8.9-12
				c-0.2-0.1-0.4-0.1-0.7-0.1C443.6,281.8,427.9,284.2,420.4,295.6z"/>
			
				<linearGradient id="SVGID_28_" gradientUnits="userSpaceOnUse" x1="-373.2626" y1="322.0166" x2="-360.2874" y2="322.0166" gradientTransform="matrix(0.9862 -0.1656 -0.1656 -0.9862 836.3307 549.989)">
				<stop  offset="0" style="stop-color:#FF928E"/>
				<stop  offset="1" style="stop-color:#FEB3B1"/>
			</linearGradient>
			<path class="st35" d="M420.8,288l5.9,3.6c1,0.6,1.5,1.9,1.1,3.1c-0.4,1-1,2.2-2.4,3.2c-0.8,0.6-1.9,0.7-2.8,0.2l-6.6-3.4
				c-1.6-0.8-1.9-2.9-0.6-4.2l2.2-2.2C418.4,287.6,419.8,287.4,420.8,288z"/>
			
				<linearGradient id="SVGID_29_" gradientUnits="userSpaceOnUse" x1="264.9884" y1="410.2409" x2="349.0522" y2="488.4055" gradientTransform="matrix(1 0 0 -1 0 745.8898)">
				<stop  offset="0" style="stop-color:#09005D"/>
				<stop  offset="1" style="stop-color:#1A0F91"/>
			</linearGradient>
			<path class="st36" d="M309.8,260c0,0-4.3,35.9-8.3,52.1c0,0-11.1,3.6-17.4,8.9c-6.3,5.3-17.7,30.6-17.7,30.6s5.2,6.8,10.2,7.2
				l38.1-37.1l27.7-45.8l-4.7-18.3L309.8,260z"/>
			
				<linearGradient id="SVGID_30_" gradientUnits="userSpaceOnUse" x1="428.6642" y1="477.2961" x2="334.2768" y2="467.9557" gradientTransform="matrix(1 0 0 -1 0 745.8898)">
				<stop  offset="0" style="stop-color:#09005D"/>
				<stop  offset="1" style="stop-color:#1A0F91"/>
			</linearGradient>
			<path class="st37" d="M310,257.1l-1.4,9.9c0,0,6.8,24.1,37.1,14.8c30.3-9.3,33.3-15.1,33.3-15.1s-0.1,16.1,37,29.3
				c0,0,4.5-4.8,4.9-9.4l-30.3-35.2c-4.2-4.6-7.5-5.4-13.3-3.5c-13,4.3-37.5,11.2-41.4,11.2L310,257.1z"/>
			
				<linearGradient id="SVGID_31_" gradientUnits="userSpaceOnUse" x1="-436.7959" y1="432.6166" x2="-507.9793" y2="319.1683" gradientTransform="matrix(0.9862 -0.1656 -0.1656 -0.9862 836.3307 549.989)">
				<stop  offset="0" style="stop-color:#4042E2"/>
				<stop  offset="1" style="stop-color:#4F52FF"/>
			</linearGradient>
			<path class="st38" d="M322.5,183.3c-9,2-22.5,8.7-30.3,18.7c3.4,2.7,8.6,7,12.7,11.5c2.5-3.2,6.2-6.2,11.9-8.6
				c-1.9,19.8-4.9,38.9-9.3,56.9c-0.3,1.1,0.4,2.3,1.6,2.5c6,1,23.5,2.9,35.6-6.9l22.5-47.5c2.4-5.1,3.6-10.7,3.6-16.3l-0.1-7.9
				C370.5,185.7,342,179,322.5,183.3z"/>
			
				<linearGradient id="SVGID_32_" gradientUnits="userSpaceOnUse" x1="280.4324" y1="586.1277" x2="301.4084" y2="510.7453" gradientTransform="matrix(1 0 0 -1 0 745.8898)">
				<stop  offset="0" style="stop-color:#FF928E"/>
				<stop  offset="1" style="stop-color:#FEB3B1"/>
			</linearGradient>
			<path class="st39" d="M317.1,250.3c-1.8-2.6-6.6-4.6-8.9-5.3c-2.5-3.5-12.6-19.2-3.3-31.5c-4.1-4.5-9.3-8.8-12.7-11.5
				c-9,11.6-10.3,27.6,12,46c-0.1,5.5,4.2,11.1,6.2,11.7C311.2,260,319.4,253.8,317.1,250.3z"/>
			
				<linearGradient id="SVGID_33_" gradientUnits="userSpaceOnUse" x1="311.6421" y1="474.3203" x2="320.4909" y2="531.8376" gradientTransform="matrix(1 0 0 -1 0 745.8898)">
				<stop  offset="0" style="stop-color:#4042E2"/>
				<stop  offset="1" style="stop-color:#4F52FF"/>
			</linearGradient>
			<path class="st40" d="M318.4,204.7c-0.4,0.1-0.7-0.1-0.8-0.5c-0.2-0.4,0-0.8,0.4-1l8-3.2c0.4-0.2,0.8,0,1,0.4
				c0.2,0.4,0,0.8-0.4,1l-8,3.2C318.5,204.6,318.5,204.7,318.4,204.7z"/>
			
				<linearGradient id="SVGID_34_" gradientUnits="userSpaceOnUse" x1="351.9999" y1="585.2932" x2="330.3684" y2="519.7432" gradientTransform="matrix(1 0 0 -1 0 745.8898)">
				<stop  offset="0" style="stop-color:#FF928E"/>
				<stop  offset="1" style="stop-color:#FEB3B1"/>
			</linearGradient>
			<path class="st41" d="M340.6,168.7l-5.2,16.5c-0.3,1,0,2.1,0.8,2.8c2.2,1.8,7.2,4.4,14.5,0.7c0.8-0.4,1.3-1.3,1.3-2.2l-0.3-14.1
				L340.6,168.7z"/>
			<g>
				
					<linearGradient id="SVGID_35_" gradientUnits="userSpaceOnUse" x1="694.5784" y1="717.4146" x2="697.2006" y2="672.183" gradientTransform="matrix(0.9977 6.710000e-02 6.710000e-02 -0.9977 -391.8971 809.6128)">
					<stop  offset="0" style="stop-color:#FF928E"/>
					<stop  offset="1" style="stop-color:#FEB3B1"/>
				</linearGradient>
				<path class="st42" d="M356.6,151.9c0,0,3.9,10.9,3.8,16.4c-0.1,5.6,0.9,9.2-5.6,9.9c-6.5,0.7-11.7-2.9-14.2-8.6
					c0,0-4-8.8-2.7-12.2C339.1,154,356.6,151.9,356.6,151.9z"/>
				
					<linearGradient id="SVGID_36_" gradientUnits="userSpaceOnUse" x1="375.7741" y1="615.2806" x2="310.3911" y2="562.6791" gradientTransform="matrix(1 0 0 -1 0 745.8898)">
					<stop  offset="0" style="stop-color:#09005D"/>
					<stop  offset="1" style="stop-color:#1A0F91"/>
				</linearGradient>
				<path class="st43" d="M343,165.8l0.4-0.1c0.5-0.2,0.7-0.7,0.5-1.2c-0.8-1.8-2.3-5.9,0.1-6.7c3-1,14.8-2.6,17.6-6.6
					c2.7-3.8,0.9-9.1-2.2-10.7c-0.2-0.1-0.5-0.1-0.6,0.2l-0.3,0.5c-0.2,0.3-0.7,0.3-0.8-0.1l0,0c-0.1-0.4-0.6-0.5-0.8-0.2
					c-0.9,1.2-3.1,3-8.7,3.7c-8,0.9-13.5,3.8-13.9,9.2c0,0.4-0.4,0.5-0.7,0.3c-0.6-0.4-1.5-0.6-2.8,0.3c-2.3,1.7-1.7,6.5,2.8,10.7
					c0.2,0.2,0.2,0.6-0.1,0.7c-0.9,0.5-2.3,1.8,0.9,3.8c3.3,2.1,5.9,2.1,6.9,2c0.3,0,0.4-0.3,0.4-0.5l-0.7-4.9
					c0-0.3,0.2-0.5,0.5-0.5L343,165.8z"/>
				
					<linearGradient id="SVGID_37_" gradientUnits="userSpaceOnUse" x1="685.9621" y1="716.9157" x2="688.5843" y2="671.6837" gradientTransform="matrix(0.9977 6.710000e-02 6.710000e-02 -0.9977 -391.8971 809.6128)">
					<stop  offset="0" style="stop-color:#FF928E"/>
					<stop  offset="1" style="stop-color:#FEB3B1"/>
				</linearGradient>
				<path class="st44" d="M343.2,166.9c0,0-1.3-6.9-4.5-5.2c-3.2,1.7,1.1,7.7,3.5,8.1L343.2,166.9z"/>
			</g>
		</g>
		<g>
			<g>
				<path class="st16" d="M75.3,511.9c-0.2,0-0.3,0-0.5-0.1c-0.6-0.3-1-1-0.7-1.6c0-0.1,0.7-1.7,2-4.7c0.3-0.6,1-0.9,1.7-0.7
					c0.6,0.3,0.9,1,0.7,1.7c-1.3,3-1.9,4.6-2,4.7C76.3,511.6,75.8,511.9,75.3,511.9z M79.3,502.6c-0.2,0-0.4,0-0.5-0.1
					c-0.6-0.3-0.9-1-0.6-1.7c0.7-1.5,1.4-3,2.1-4.6c0.3-0.6,1.1-0.9,1.7-0.6s0.9,1.1,0.6,1.7c-0.7,1.5-1.4,3.1-2.1,4.6
					C80.3,502.3,79.8,502.6,79.3,502.6z M83.6,493.5c-0.2,0-0.4,0-0.6-0.1c-0.6-0.3-0.9-1.1-0.6-1.7c0.7-1.5,1.5-3,2.3-4.5
					c0.3-0.6,1.1-0.9,1.7-0.6s0.9,1.1,0.6,1.7c-0.8,1.5-1.5,3-2.2,4.5C84.6,493.2,84.1,493.5,83.6,493.5z M88.2,484.5
					c-0.2,0-0.4,0-0.6-0.1c-0.6-0.3-0.9-1.1-0.5-1.7c0.8-1.5,1.6-3,2.4-4.5c0.3-0.6,1.1-0.8,1.7-0.5c0.6,0.3,0.8,1.1,0.5,1.7
					c-0.8,1.5-1.6,3-2.3,4.5C89.1,484.2,88.6,484.5,88.2,484.5z M92.9,475.6c-0.2,0-0.4-0.1-0.6-0.2c-0.6-0.3-0.8-1.1-0.5-1.7
					c0.8-1.5,1.6-3,2.4-4.4c0.3-0.6,1.1-0.8,1.7-0.5c0.6,0.3,0.8,1.1,0.5,1.7c-0.8,1.5-1.6,2.9-2.4,4.4
					C93.8,475.3,93.4,475.6,92.9,475.6z M97.8,466.8c-0.2,0-0.4-0.1-0.6-0.2c-0.6-0.3-0.8-1.1-0.5-1.7c0.8-1.4,1.7-2.9,2.5-4.4
					c0.4-0.6,1.1-0.8,1.7-0.4c0.6,0.4,0.8,1.1,0.4,1.7c-0.8,1.4-1.7,2.9-2.5,4.4C98.7,466.6,98.3,466.8,97.8,466.8z M102.9,458.1
					c-0.2,0-0.4-0.1-0.6-0.2c-0.6-0.4-0.8-1.1-0.4-1.7c0.9-1.4,1.7-2.9,2.6-4.3c0.4-0.6,1.1-0.8,1.7-0.4c0.6,0.4,0.8,1.1,0.4,1.7
					c-0.9,1.4-1.8,2.9-2.6,4.3C103.8,457.9,103.4,458.1,102.9,458.1z M108.2,449.5c-0.2,0-0.5-0.1-0.7-0.2c-0.6-0.4-0.8-1.1-0.4-1.7
					c0.9-1.4,1.8-2.9,2.7-4.3c0.4-0.6,1.1-0.8,1.7-0.4c0.6,0.4,0.8,1.1,0.4,1.7c-0.9,1.4-1.8,2.8-2.7,4.2
					C109,449.3,108.6,449.5,108.2,449.5z M113.6,441c-0.2,0-0.5-0.1-0.7-0.2c-0.6-0.4-0.7-1.2-0.4-1.7c0.9-1.4,1.9-2.8,2.8-4.2
					c0.4-0.6,1.2-0.7,1.7-0.4c0.6,0.4,0.7,1.2,0.4,1.7c-0.9,1.4-1.8,2.8-2.8,4.2C114.4,440.8,114,441,113.6,441z M119.2,432.6
					c-0.2,0-0.5-0.1-0.7-0.2c-0.6-0.4-0.7-1.2-0.3-1.8c0.9-1.4,1.9-2.8,2.9-4.2c0.4-0.6,1.2-0.7,1.8-0.3c0.6,0.4,0.7,1.2,0.3,1.8
					c-1,1.4-1.9,2.8-2.8,4.1C120,432.4,119.6,432.6,119.2,432.6z M125,424.4c-0.3,0-0.5-0.1-0.7-0.2c-0.6-0.4-0.7-1.2-0.3-1.8
					c1-1.4,2-2.7,2.9-4.1c0.4-0.6,1.2-0.7,1.8-0.3c0.6,0.4,0.7,1.2,0.3,1.8c-1,1.4-2,2.7-2.9,4.1C125.7,424.2,125.3,424.4,125,424.4
					z M130.9,416.2c-0.3,0-0.5-0.1-0.7-0.3c-0.6-0.4-0.7-1.2-0.3-1.8c1-1.3,2-2.7,3-4c0.4-0.6,1.2-0.7,1.8-0.2
					c0.6,0.4,0.7,1.2,0.2,1.8c-1,1.3-2,2.7-3,4C131.6,416,131.3,416.2,130.9,416.2z M136.9,408.2c-0.3,0-0.5-0.1-0.8-0.3
					c-0.5-0.4-0.7-1.2-0.2-1.8c1-1.3,2.1-2.7,3.1-4c0.4-0.5,1.2-0.6,1.8-0.2c0.5,0.4,0.6,1.2,0.2,1.8c-1,1.3-2.1,2.6-3.1,4
					C137.7,408,137.3,408.2,136.9,408.2z M143.2,400.3c-0.3,0-0.6-0.1-0.8-0.3c-0.5-0.4-0.6-1.2-0.2-1.8c1.1-1.3,2.1-2.6,3.2-3.9
					c0.4-0.5,1.2-0.6,1.8-0.2c0.5,0.4,0.6,1.2,0.2,1.8c-1.1,1.3-2.1,2.6-3.2,3.9C143.9,400.1,143.5,400.3,143.2,400.3z M149.6,392.5
					c-0.3,0-0.6-0.1-0.8-0.3c-0.5-0.4-0.6-1.2-0.2-1.8c1.1-1.3,2.2-2.6,3.3-3.9c0.4-0.5,1.2-0.6,1.8-0.1c0.5,0.4,0.6,1.2,0.1,1.8
					c-1.1,1.3-2.2,2.6-3.2,3.8C150.3,392.3,149.9,392.5,149.6,392.5z M156.1,384.8c-0.3,0-0.6-0.1-0.8-0.3c-0.5-0.5-0.6-1.3-0.1-1.8
					c1.1-1.3,2.2-2.5,3.3-3.8c0.5-0.5,1.3-0.6,1.8-0.1c0.5,0.5,0.6,1.3,0.1,1.8c-1.1,1.2-2.2,2.5-3.3,3.8
					C156.8,384.7,156.5,384.8,156.1,384.8z M162.8,377.3c-0.3,0-0.6-0.1-0.9-0.3c-0.5-0.5-0.5-1.3-0.1-1.8c1.1-1.2,2.3-2.5,3.4-3.7
					c0.5-0.5,1.3-0.5,1.8-0.1c0.5,0.5,0.5,1.3,0.1,1.8c-1.1,1.2-2.3,2.5-3.4,3.7C163.5,377.2,163.2,377.3,162.8,377.3z M169.7,370
					c-0.3,0-0.6-0.1-0.9-0.4c-0.5-0.5-0.5-1.3,0-1.8c1.2-1.2,2.3-2.4,3.5-3.6c0.5-0.5,1.3-0.5,1.8,0c0.5,0.5,0.5,1.3,0,1.8
					c-1.2,1.2-2.3,2.4-3.5,3.6C170.4,369.8,170,370,169.7,370z M176.7,362.8c-0.3,0-0.6-0.1-0.9-0.4c-0.5-0.5-0.5-1.3,0-1.8
					c1.2-1.2,2.4-2.4,3.6-3.6c0.5-0.5,1.3-0.5,1.8,0c0.5,0.5,0.5,1.3,0,1.8c-1.2,1.2-2.4,2.4-3.6,3.5
					C177.4,362.6,177.1,362.8,176.7,362.8z M183.9,355.7c-0.3,0-0.7-0.1-0.9-0.4c-0.5-0.5-0.5-1.3,0-1.8c1.2-1.2,2.4-2.3,3.7-3.5
					c0.5-0.5,1.3-0.4,1.8,0.1c0.5,0.5,0.4,1.3-0.1,1.8c-1.2,1.1-2.4,2.3-3.6,3.4C184.6,355.6,184.2,355.7,183.9,355.7z M191.3,348.8
					c-0.3,0-0.7-0.1-0.9-0.4c-0.5-0.5-0.4-1.3,0.1-1.8c1.2-1.1,2.5-2.3,3.7-3.4c0.5-0.5,1.3-0.4,1.8,0.1c0.5,0.5,0.4,1.3-0.1,1.8
					c-1.2,1.1-2.5,2.2-3.7,3.4C191.9,348.7,191.6,348.8,191.3,348.8z M198.8,342.1c-0.4,0-0.7-0.1-1-0.4c-0.5-0.5-0.4-1.3,0.1-1.8
					c1.3-1.1,2.6-2.2,3.8-3.3c0.5-0.4,1.3-0.4,1.8,0.1c0.4,0.5,0.4,1.3-0.1,1.8c-1.3,1.1-2.5,2.2-3.8,3.3
					C199.4,342,199.1,342.1,198.8,342.1z M206.5,335.6c-0.4,0-0.7-0.2-1-0.5c-0.4-0.5-0.4-1.3,0.2-1.8c1.3-1.1,2.6-2.2,3.9-3.2
					c0.5-0.4,1.3-0.4,1.8,0.2c0.4,0.5,0.4,1.3-0.2,1.8c-1.3,1-2.6,2.1-3.9,3.2C207,335.5,206.7,335.6,206.5,335.6z M214.3,329.3
					c-0.4,0-0.7-0.2-1-0.5c-0.4-0.5-0.3-1.3,0.2-1.8c1.3-1,2.7-2.1,4-3.1c0.5-0.4,1.3-0.3,1.8,0.2c0.4,0.5,0.3,1.3-0.2,1.8
					c-1.3,1-2.6,2.1-4,3.1C214.8,329.2,214.6,329.3,214.3,329.3z M222.3,323.1c-0.4,0-0.8-0.2-1-0.5c-0.4-0.6-0.3-1.3,0.3-1.8
					c1.3-1,2.7-2,4.1-3c0.6-0.4,1.3-0.3,1.8,0.3c0.4,0.6,0.3,1.3-0.3,1.8c-1.3,1-2.7,2-4,3C222.8,323.1,222.5,323.1,222.3,323.1z
					 M230.4,317.2c-0.4,0-0.8-0.2-1-0.5c-0.4-0.6-0.3-1.4,0.3-1.8c1.4-1,2.8-1.9,4.1-2.9c0.6-0.4,1.4-0.3,1.8,0.3
					c0.4,0.6,0.3,1.4-0.3,1.8c-1.4,0.9-2.7,1.9-4.1,2.9C230.9,317.1,230.6,317.2,230.4,317.2z M238.7,311.5c-0.4,0-0.8-0.2-1.1-0.6
					c-0.4-0.6-0.2-1.4,0.3-1.8c1.4-0.9,2.8-1.9,4.2-2.8c0.6-0.4,1.4-0.2,1.7,0.4c0.4,0.6,0.2,1.4-0.4,1.7c-1.4,0.9-2.8,1.8-4.2,2.8
					C239.2,311.4,238.9,311.5,238.7,311.5z M247.1,306c-0.4,0-0.8-0.2-1.1-0.6c-0.4-0.6-0.2-1.4,0.4-1.7c1.4-0.9,2.9-1.8,4.3-2.7
					c0.6-0.4,1.4-0.2,1.7,0.4c0.4,0.6,0.2,1.4-0.4,1.7c-1.4,0.9-2.9,1.8-4.3,2.7C247.6,305.9,247.3,306,247.1,306z M255.7,300.7
					c-0.4,0-0.8-0.2-1.1-0.6c-0.4-0.6-0.2-1.4,0.4-1.7c1.4-0.9,2.9-1.7,4.4-2.6c0.6-0.4,1.4-0.1,1.7,0.5c0.4,0.6,0.1,1.4-0.5,1.7
					c-1.4,0.8-2.9,1.7-4.3,2.5C256.1,300.7,255.9,300.7,255.7,300.7z M264.4,295.7c-0.4,0-0.9-0.2-1.1-0.6c-0.3-0.6-0.1-1.4,0.5-1.7
					c1.5-0.8,3-1.6,4.4-2.4c0.6-0.3,1.4-0.1,1.7,0.5c0.3,0.6,0.1,1.4-0.5,1.7c-1.5,0.8-2.9,1.6-4.4,2.4
					C264.8,295.6,264.6,295.7,264.4,295.7z M273.2,290.9c-0.4,0-0.9-0.2-1.1-0.7c-0.3-0.6-0.1-1.4,0.5-1.7c1.5-0.8,3-1.6,4.5-2.3
					c0.6-0.3,1.4-0.1,1.7,0.6c0.3,0.6,0.1,1.4-0.6,1.7c-1.5,0.8-3,1.5-4.5,2.3C273.6,290.8,273.4,290.9,273.2,290.9z M282.2,286.3
					c-0.5,0-0.9-0.3-1.1-0.7c-0.3-0.6,0-1.4,0.6-1.7c1.5-0.7,3-1.5,4.6-2.2c0.6-0.3,1.4,0,1.7,0.6c0.3,0.6,0,1.4-0.6,1.7
					c-1.5,0.7-3,1.4-4.5,2.2C282.6,286.3,282.4,286.3,282.2,286.3z M291.3,282.1c-0.5,0-0.9-0.3-1.1-0.7c-0.3-0.6,0-1.4,0.6-1.7
					c1.5-0.7,3.1-1.4,4.6-2.1c0.6-0.3,1.4,0,1.7,0.6s0,1.4-0.6,1.7c-1.5,0.7-3.1,1.4-4.6,2C291.7,282,291.5,282.1,291.3,282.1z
					 M300.6,278c-0.5,0-1-0.3-1.2-0.8c-0.3-0.6,0-1.4,0.7-1.7c1.5-0.6,3.1-1.3,4.7-1.9c0.6-0.3,1.4,0.1,1.6,0.7
					c0.3,0.6-0.1,1.4-0.7,1.6c-1.5,0.6-3.1,1.3-4.6,1.9C300.9,278,300.7,278,300.6,278z M309.9,274.3c-0.5,0-1-0.3-1.2-0.8
					c-0.3-0.6,0.1-1.4,0.7-1.6c1.6-0.6,3.2-1.2,4.7-1.8c0.7-0.2,1.4,0.1,1.6,0.7c0.2,0.7-0.1,1.4-0.7,1.6c-1.6,0.6-3.1,1.2-4.7,1.8
					C310.2,274.2,310,274.3,309.9,274.3z M319.3,270.8c-0.5,0-1-0.3-1.2-0.8c-0.2-0.7,0.1-1.4,0.8-1.6c1.6-0.6,3.2-1.1,4.8-1.7
					c0.7-0.2,1.4,0.1,1.6,0.8c0.2,0.7-0.1,1.4-0.8,1.6c-1.6,0.5-3.2,1.1-4.7,1.6C319.6,270.8,319.5,270.8,319.3,270.8z M328.9,267.6
					c-0.5,0-1-0.3-1.2-0.9c-0.2-0.7,0.2-1.4,0.8-1.6c1.6-0.5,3.2-1,4.8-1.5c0.7-0.2,1.4,0.2,1.6,0.8c0.2,0.7-0.2,1.4-0.8,1.6
					c-1.6,0.5-3.2,1-4.8,1.5C329.1,267.6,329,267.6,328.9,267.6z M338.5,264.6c-0.5,0-1.1-0.4-1.2-0.9c-0.2-0.7,0.2-1.4,0.9-1.6
					c1.6-0.5,3.2-0.9,4.9-1.4c0.7-0.2,1.4,0.2,1.5,0.9c0.2,0.7-0.2,1.4-0.9,1.5c-1.6,0.4-3.2,0.9-4.8,1.4
					C338.7,264.6,338.6,264.6,338.5,264.6z M348.2,262c-0.6,0-1.1-0.4-1.2-0.9c-0.2-0.7,0.2-1.4,0.9-1.5c1.6-0.4,3.3-0.8,4.9-1.2
					c0.7-0.2,1.4,0.3,1.5,0.9c0.2,0.7-0.3,1.4-0.9,1.5c-1.6,0.4-3.3,0.8-4.9,1.2C348.4,262,348.3,262,348.2,262z M358,259.6
					c-0.6,0-1.1-0.4-1.2-1c-0.2-0.7,0.3-1.4,1-1.5c1.6-0.4,3.3-0.7,4.9-1.1c0.7-0.1,1.3,0.3,1.5,1s-0.3,1.3-1,1.5
					c-1.6,0.4-3.3,0.7-4.9,1.1C358.1,259.6,358.1,259.6,358,259.6z M522.8,258.9c-0.1,0-0.2,0-0.2,0c-1.6-0.3-3.3-0.6-4.9-0.9
					c-0.7-0.1-1.1-0.8-1-1.5s0.8-1.1,1.5-1c1.7,0.3,3.3,0.6,5,0.9c0.7,0.1,1.1,0.8,1,1.5C523.9,258.5,523.4,258.9,522.8,258.9z
					 M367.8,257.5c-0.6,0-1.1-0.4-1.2-1c-0.1-0.7,0.3-1.3,1-1.5c1.6-0.3,3.3-0.6,5-0.9c0.7-0.1,1.3,0.3,1.5,1c0.1,0.7-0.3,1.3-1,1.5
					c-1.6,0.3-3.3,0.6-4.9,0.9C368,257.5,367.9,257.5,367.8,257.5z M512.9,257.1c-0.1,0-0.1,0-0.2,0c-1.6-0.3-3.3-0.6-4.9-0.8
					c-0.7-0.1-1.1-0.8-1-1.4c0.1-0.7,0.8-1.1,1.4-1c1.7,0.3,3.3,0.5,5,0.8c0.7,0.1,1.1,0.8,1,1.5C514,256.7,513.5,257.1,512.9,257.1
					z M377.7,255.7c-0.6,0-1.1-0.4-1.2-1.1c-0.1-0.7,0.4-1.3,1-1.5c1.6-0.3,3.3-0.5,5-0.8c0.7-0.1,1.3,0.4,1.4,1.1
					c0.1,0.7-0.4,1.3-1.1,1.4c-1.7,0.3-3.3,0.5-4.9,0.8C377.8,255.7,377.8,255.7,377.7,255.7z M502.9,255.5c-0.1,0-0.1,0-0.2,0
					c-1.7-0.3-3.3-0.5-5-0.7c-0.7-0.1-1.2-0.7-1.1-1.4c0.1-0.7,0.7-1.2,1.4-1.1c1.7,0.2,3.3,0.5,5,0.7c0.7,0.1,1.2,0.7,1.1,1.4
					C504.1,255,503.6,255.5,502.9,255.5z M387.6,254.2c-0.6,0-1.2-0.5-1.2-1.1c-0.1-0.7,0.4-1.3,1.1-1.4c1.7-0.2,3.3-0.5,5-0.7
					c0.7-0.1,1.3,0.4,1.4,1.1c0.1,0.7-0.4,1.3-1.1,1.4c-1.7,0.2-3.3,0.4-5,0.7C387.8,254.2,387.7,254.2,387.6,254.2z M493,254.1
					c-0.1,0-0.1,0-0.2,0c-1.7-0.2-3.3-0.4-5-0.6c-0.7-0.1-1.2-0.7-1.1-1.4c0.1-0.7,0.7-1.2,1.4-1.1c1.7,0.2,3.3,0.4,5,0.6
					c0.7,0.1,1.2,0.7,1.1,1.4C494.1,253.6,493.6,254.1,493,254.1z M483,252.9c0,0-0.1,0-0.1,0c-1.7-0.2-3.3-0.3-5-0.5
					c-0.7-0.1-1.2-0.7-1.1-1.4c0.1-0.7,0.7-1.2,1.4-1.1c1.7,0.2,3.4,0.3,5,0.5c0.7,0.1,1.2,0.7,1.1,1.4
					C484.2,252.4,483.6,252.9,483,252.9z M397.6,252.9c-0.6,0-1.2-0.5-1.2-1.1c-0.1-0.7,0.4-1.3,1.1-1.4c1.7-0.2,3.3-0.4,5-0.5
					c0.7-0.1,1.3,0.4,1.4,1.1c0.1,0.7-0.4,1.3-1.1,1.4c-1.7,0.2-3.3,0.3-5,0.5C397.7,252.9,397.7,252.9,397.6,252.9z M473,252
					c0,0-0.1,0-0.1,0c-1.7-0.1-3.3-0.3-5-0.4c-0.7,0-1.2-0.6-1.2-1.3c0-0.7,0.7-1.2,1.3-1.2c1.7,0.1,3.4,0.2,5,0.4
					c0.7,0.1,1.2,0.7,1.1,1.4C474.2,251.5,473.6,252,473,252z M407.6,251.9c-0.6,0-1.2-0.5-1.3-1.1c-0.1-0.7,0.5-1.3,1.1-1.4
					c1.7-0.1,3.4-0.3,5-0.4c0.7,0,1.3,0.5,1.3,1.2c0,0.7-0.5,1.3-1.2,1.3c-1.7,0.1-3.3,0.3-5,0.4
					C407.7,251.9,407.7,251.9,407.6,251.9z M462.9,251.3C462.9,251.3,462.9,251.3,462.9,251.3c-1.7-0.1-3.4-0.2-5.1-0.3
					c-0.7,0-1.2-0.6-1.2-1.3c0-0.7,0.6-1.2,1.3-1.2c1.7,0.1,3.4,0.2,5,0.3c0.7,0,1.2,0.6,1.2,1.3
					C464.1,250.8,463.6,251.3,462.9,251.3z M417.7,251.2c-0.7,0-1.2-0.5-1.3-1.2c0-0.7,0.5-1.3,1.2-1.3c1.7-0.1,3.4-0.2,5-0.3
					c0.7,0,1.3,0.5,1.3,1.2c0,0.7-0.5,1.3-1.2,1.3C421.1,251,419.4,251.1,417.7,251.2C417.7,251.2,417.7,251.2,417.7,251.2z
					 M452.9,250.8C452.9,250.8,452.9,250.8,452.9,250.8c-1.7-0.1-3.4-0.1-5.1-0.1c-0.7,0-1.2-0.6-1.2-1.3c0-0.7,0.6-1.2,1.3-1.2
					c1.7,0,3.4,0.1,5,0.1c0.7,0,1.2,0.6,1.2,1.3C454.1,250.3,453.6,250.8,452.9,250.8z M427.7,250.8c-0.7,0-1.2-0.5-1.3-1.2
					c0-0.7,0.5-1.3,1.2-1.3c1.7-0.1,3.4-0.1,5-0.1c0.7,0,1.3,0.5,1.3,1.2c0,0.7-0.5,1.3-1.2,1.3
					C431.1,250.7,429.4,250.7,427.7,250.8C427.8,250.8,427.7,250.8,427.7,250.8z M442.8,250.7L442.8,250.7c-1.7,0-3.4,0-5,0
					c0,0,0,0,0,0c-0.7,0-1.3-0.6-1.3-1.3c0-0.7,0.6-1.3,1.3-1.3c1.7,0,3.4,0,5,0c0.7,0,1.3,0.6,1.2,1.3
					C444.1,250.1,443.5,250.7,442.8,250.7z"/>
			</g>
			<g>
				<path class="st16" d="M518.2,267.2c-0.4,0-0.8-0.2-1.1-0.6c-0.4-0.6-0.2-1.4,0.4-1.7l9.4-5.8c-2.5-3.8-5.3-7.8-6.2-8.5
					c-0.4-0.1-0.8-0.5-0.8-1c-0.1-0.7,0.4-1.3,1.1-1.4c0.8-0.1,1.7-0.2,8.8,10.7c0.2,0.3,0.2,0.6,0.2,1c-0.1,0.3-0.3,0.6-0.6,0.8
					l-10.5,6.5C518.7,267.1,518.4,267.2,518.2,267.2z"/>
			</g>
		</g>
	</g>
	<path class="st45" d="M619.8,596.5H46c-3,0-5.3-2.4-5.3-5.3v-4.5c0-3,2.4-5.3,5.3-5.3h573.8c3,0,5.3,2.4,5.3,5.3v4.5
		C625.1,594.1,622.7,596.5,619.8,596.5z"/>
	<g>
		
			<linearGradient id="SVGID_38_" gradientUnits="userSpaceOnUse" x1="120.4516" y1="326.9995" x2="80.4661" y2="245.7175" gradientTransform="matrix(1 0 0 -1 0 745.8898)">
			<stop  offset="0" style="stop-color:#09005D"/>
			<stop  offset="1" style="stop-color:#1A0F91"/>
		</linearGradient>
		<path class="st46" d="M114.9,420c0,0-6.2,3-7.4,6.5c-0.9,2.8-7.8,3.2-8.5,8.6c-0.4,2.8-2.5,5.1-5.3,5.5c-7,1.1-17.9,4.7-19.6,16.9
			c-1.3,9.3,3.4,12.8,8.4,14.1c3.7,0.9,6.1,4.5,5.3,8.2c-0.7,3.5,0.4,7.6,6.5,10.9c13.8,7.3,27.5-17.2,27.5-17.2l2.8-42.7L114.9,420
			z"/>
		
			<linearGradient id="SVGID_39_" gradientUnits="userSpaceOnUse" x1="-3305.0264" y1="323.1043" x2="-3284.0117" y2="275.2914" gradientTransform="matrix(-1 0 0 -1 -3158.4504 745.8898)">
			<stop  offset="0" style="stop-color:#A22B25"/>
			<stop  offset="1" style="stop-color:#C0423C"/>
		</linearGradient>
		<path class="st47" d="M156.3,407.8c0,0-10.9,29.7-29.5,39c0,0,6.2,10.1,9.4,10.7c0,0,19.9-25.4,21.9-46.2L156.3,407.8z"/>
		
			<linearGradient id="SVGID_40_" gradientUnits="userSpaceOnUse" x1="-3239.9695" y1="156.9132" x2="-3230.3303" y2="156.9132" gradientTransform="matrix(-1 0 0 -1 -3158.4504 745.8898)">
			<stop  offset="0" style="stop-color:#4042E2"/>
			<stop  offset="1" style="stop-color:#4F52FF"/>
		</linearGradient>
		<path class="st48" d="M81.5,586.7l-0.5,4.5c-0.1,0.9-0.8,1.5-1.6,1.6c-1.4,0.2-3.8,0.3-6,0.1c-1-0.1-1.6-1.1-1.3-2.1
			c0.6-1.7,1.6-4.4,3-5.9h5C80.9,584.9,81.6,585.7,81.5,586.7z"/>
		
			<linearGradient id="SVGID_41_" gradientUnits="userSpaceOnUse" x1="111.0386" y1="182.9831" x2="124.4573" y2="182.9831" gradientTransform="matrix(1 0 0 -1 0 745.8898)">
			<stop  offset="0" style="stop-color:#A22B25"/>
			<stop  offset="1" style="stop-color:#C0423C"/>
		</linearGradient>
		<path class="st49" d="M120.7,533.8l0.8,5c0,0-2.8,28.6-3.3,40.1c-0.1,1.8,0.4,3.6,1.3,5.1l4.9,8l-12.5-7.4l-0.3-1.5l2-2.8
			l-2.7-32.1c-0.2-1.9,0.2-3.8,1.1-5.4l2.6-4.9L120.7,533.8z"/>
		
			<linearGradient id="SVGID_42_" gradientUnits="userSpaceOnUse" x1="-3284.7869" y1="158.6758" x2="-3269.1819" y2="158.6758" gradientTransform="matrix(-1 0 0 -1 -3158.4504 745.8898)">
			<stop  offset="0" style="stop-color:#4042E2"/>
			<stop  offset="1" style="stop-color:#4F52FF"/>
		</linearGradient>
		<path class="st50" d="M125.3,593.1h-4c-0.7,0-1.5-0.3-1.9-0.9c-1.2-1.6-3.8-4.8-5.1-4.8c-1.7-0.1-1.4,5.8-1.4,5.8H112l-1.2-7.3
			c-0.3-1.8,0.6-3.7,2.3-4.5l0,0c0,0,0.4,2.8,2.4,4c2.1,1.2,8.4,5.7,8.4,5.7s0.8-0.1,1.6,0C126.7,591.3,126.6,593.1,125.3,593.1z"/>
		
			<linearGradient id="SVGID_43_" gradientUnits="userSpaceOnUse" x1="73.628" y1="183.7071" x2="103.5789" y2="183.7071" gradientTransform="matrix(1 0 0 -1 0 745.8898)">
			<stop  offset="0" style="stop-color:#A22B25"/>
			<stop  offset="1" style="stop-color:#C0423C"/>
		</linearGradient>
		<path class="st51" d="M103.6,536.2c0,0-16.6,31.4-19.2,38.6c-2.6,7.2-3.6,13.2-3.6,13.7c-0.1,0.9-1.2,1.7-4.2,1.7
			c-1.6,0-2.3-0.6-2.7-1.2c-0.3-0.5-0.3-1.2-0.1-1.7c1-1.9,4-8.1,5.1-11c1.3-3.4,4.2-18.6,5.8-23.9c1.6-5.3,3.4-11,10.3-16.3
			C95.1,536.2,99.8,531.5,103.6,536.2z"/>
		
			<linearGradient id="SVGID_44_" gradientUnits="userSpaceOnUse" x1="-3280.3875" y1="282.4774" x2="-3273.447" y2="218.0843" gradientTransform="matrix(-1 0 0 -1 -3158.4504 745.8898)">
			<stop  offset="0" style="stop-color:#4042E2"/>
			<stop  offset="1" style="stop-color:#4F52FF"/>
		</linearGradient>
		<path class="st52" d="M114,484.7c4.3-18.1-6.6-28.3-6.6-28.3c6.8-6.6,19.3-9.5,19.3-9.5s11.9,8.7,10.5,15.5
			c-0.8,4-8.3,23.9-8.3,23.9S121.9,489.4,114,484.7z"/>
		
			<linearGradient id="SVGID_45_" gradientUnits="userSpaceOnUse" x1="-3242.1602" y1="279.3199" x2="-3276.8633" y2="223.7952" gradientTransform="matrix(-1 0 0 -1 -3158.4504 745.8898)">
			<stop  offset="0" style="stop-color:#09005D"/>
			<stop  offset="1" style="stop-color:#1A0F91"/>
		</linearGradient>
		<path class="st53" d="M104.6,493.7c1.7-5.2,9.5-9,9.5-9c7.9,4.7,14.8,1.4,14.8,1.4s1.6,6,0.5,11.5c-1.1,5.5-7.8,41.1-7.8,41.1
			c-10.6,2.2-27-2.2-27-2.2C101.3,524.6,102.8,498.9,104.6,493.7z"/>
		
			<linearGradient id="SVGID_46_" gradientUnits="userSpaceOnUse" x1="543.7457" y1="278.7893" x2="546.3531" y2="297.8643" gradientTransform="matrix(-1 0 0 -1 667.5495 745.8898)">
			<stop  offset="0" style="stop-color:#C4421B"/>
			<stop  offset="1" style="stop-color:#5C0E16"/>
		</linearGradient>
		<path class="st54" d="M119,434.8l-3.5,15.6c-0.3,1.4,0.9,1.1,2.3,0.9c2.3-0.4,5.2-1.3,6.2-3.1c0.1-0.2,0.2-0.4,0.2-0.6l1.5-10.8
			c0.1-0.9-0.4-1.7-1.1-2l-2.9-1.3C120.6,433,119.3,433.7,119,434.8z"/>
		
			<linearGradient id="SVGID_47_" gradientUnits="userSpaceOnUse" x1="-3271.5107" y1="269.4947" x2="-3254.1809" y2="269.4947" gradientTransform="matrix(-1 0 0 -1 -3158.4504 745.8898)">
			<stop  offset="0" style="stop-color:#A22B25"/>
			<stop  offset="1" style="stop-color:#C0423C"/>
		</linearGradient>
		<path class="st55" d="M107.5,456.3c0,0-24.3,17.4-3.1,35.6c0,0,0.8,0.9,2.4,1.4c0.8,0.2,3.2,2,4.4,3c0.4,0.3,0.9,0.2,1.2-0.2l0,0
			c0.2-0.3,0.2-0.7,0.1-1.1l-3-6.3c-0.8-0.8-2.1-0.8-3-0.1l0,0c-0.6,0.4-1.4,0.3-1.7-0.4c-1.6-3.3-4.7-13.1,7.9-24.2
			c0.5-0.4,0.6-1.1,0.3-1.7C112,460.6,110,457.2,107.5,456.3z"/>
		<g>
			
				<linearGradient id="SVGID_48_" gradientUnits="userSpaceOnUse" x1="-3288.835" y1="303.3837" x2="-3266.0852" y2="343.8705" gradientTransform="matrix(-1 0 0 -1 -3158.4504 745.8898)">
				<stop  offset="0" style="stop-color:#A22B25"/>
				<stop  offset="1" style="stop-color:#C0423C"/>
			</linearGradient>
			<path class="st56" d="M123.1,420c0,0,4.1,1.7,6.9,7.7c2.8,5.9,0.7,8.7-1.9,9.1c-2.6,0.4-6.6,0.3-10.7-3.5
				C113.2,429.4,117.7,417.9,123.1,420z"/>
			
				<linearGradient id="SVGID_49_" gradientUnits="userSpaceOnUse" x1="120.917" y1="326.7705" x2="80.9314" y2="245.4884" gradientTransform="matrix(1 0 0 -1 0 745.8898)">
				<stop  offset="0" style="stop-color:#09005D"/>
				<stop  offset="1" style="stop-color:#1A0F91"/>
			</linearGradient>
			<path class="st57" d="M120.2,430c0,0-3.1-8.7,4.6-8.8l1.8,1.3c0,0,2.8-4.8-1.8-7.1c-4.6-2.3-10.1-0.4-12.1,5.9
				c-2,6.3-2.3,10.4,1,13.4c3.3,3,4.6-0.4,4.6-0.4s-1.8-2.8-1.1-4.3c0.7-1.5,2.4,0.3,2.4,0.3L120.2,430z"/>
			
				<linearGradient id="SVGID_50_" gradientUnits="userSpaceOnUse" x1="-3283.9927" y1="300.6629" x2="-3261.2432" y2="341.1494" gradientTransform="matrix(-1 0 0 -1 -3158.4504 745.8898)">
				<stop  offset="0" style="stop-color:#A22B25"/>
				<stop  offset="1" style="stop-color:#C0423C"/>
			</linearGradient>
			<path class="st58" d="M119.3,431c0,0-1.6-4.5-3.7-2.7c-2.1,1.8,1.7,4.1,3.2,4.9L119.3,431z"/>
		</g>
		<g>
			
				<linearGradient id="SVGID_51_" gradientUnits="userSpaceOnUse" x1="-3309.1655" y1="321.2852" x2="-3288.1509" y2="273.4724" gradientTransform="matrix(-1 0 0 -1 -3158.4504 745.8898)">
				<stop  offset="0" style="stop-color:#A22B25"/>
				<stop  offset="1" style="stop-color:#C0423C"/>
			</linearGradient>
			<path class="st59" d="M157.3,413.2c0.2,0.5-1.8,1.3-2.9-0.8c0-1-0.7-5.5-0.1-6.3c3.3-4.5,9.7-10.1,9.7-10.1
				c1.1,1.1,0.2,2.1,0.2,2.1l-3.1,3.2c0.6,1.2,1.4,2.2,1.8,3.6c0.3,1.1,0.1,2.2-0.4,3.2c-0.5,1-1.3,2.3-2,3.3
				C159.2,413.2,157.3,413.2,157.3,413.2z"/>
			
				<linearGradient id="SVGID_52_" gradientUnits="userSpaceOnUse" x1="155.1836" y1="372.6504" x2="163.5408" y2="283.6705" gradientTransform="matrix(1 0 0 -1 0 745.8898)">
				<stop  offset="0" style="stop-color:#A22B25"/>
				<stop  offset="1" style="stop-color:#C0423C"/>
			</linearGradient>
			<path class="st60" d="M158.8,410.9l-0.3-0.1c0-0.2,0.9-4.8,1.5-5.8c0.3-0.4,0.4-0.8,0.3-1.1c-0.1-0.2-0.2-0.3-0.4-0.5l-2.7,2.3
				l-0.9,2.4l-0.3-0.1l0.9-2.4l2.9-2.5l0.1,0.1c0.4,0.2,0.6,0.4,0.7,0.7c0.1,0.4,0,0.8-0.3,1.3C159.6,406.2,158.8,410.9,158.8,410.9
				z"/>
		</g>
	</g>
</g>
</svg>
