<?xml version="1.0" encoding="utf-8"?>
<!-- Generator: Adobe Illustrator 25.2.1, SVG Export Plug-In . SVG Version: 6.00 Build 0)  -->
<svg version="1.1" id="Capa_1" xmlns="http://www.w3.org/2000/svg" xmlns:xlink="http://www.w3.org/1999/xlink" x="0px" y="0px"
	 viewBox="0 0 1080 1080" style="enable-background:new 0 0 1080 1080;" xml:space="preserve">
<style type="text/css">
	.st0{fill:#FFFFFF;}
</style>
<g>
	<g>
		<path class="st0" d="M372.6,136.4l-19.2-69.7l12.9-3.6l50.8,40.6l-14-50.8l12.4-3.4l19.2,69.7l-12.9,3.6l-51.1-41.7l14.3,51.8
			L372.6,136.4z"/>
		<path class="st0" d="M478.5,40.3l8.4,71.8l-13.3,1.6l-8.4-71.8L478.5,40.3z"/>
		<path class="st0" d="M597.4,38.5l-33.9,71.3l-14.4-0.4L521,36.1l15.9,0.5l20.7,56l24-54.6L597.4,38.5z"/>
		<path class="st0" d="M689.8,55.6l-2.4,11.3L652,59.3L648.1,77l33.7,7.3L679.3,96l-33.8-7.3l-4,18.5l36.2,7.8l-2.5,11.4l-49.1-10.6
			l15.3-70.6L689.8,55.6z"/>
		<path class="st0" d="M748.9,75.2l-22.2,56.4l26.7,10.5l-4.3,10.8L710,137.5l26.5-67.2L748.9,75.2z"/>
	</g>
	<path class="st0" d="M863.1,796.7c-10.9-8.9-20.3-8.5-28.2,1.1c-8,9.9-6.6,19.3,4.4,28.2c11.1,9.1,20.7,8.6,28.7-1.2
		C875.9,815.1,874.3,805.7,863.1,796.7z"/>
	<path class="st0" d="M1041,542.3c0,1.9,0.1,3.7,0.1,5.6H1010c0-1.9-0.1-3.7-0.1-5.6H876c0,185.3-150.7,336-336,336
		c-185.3,0-336-150.7-336-336H70.1c0,1.9-0.1,3.7-0.1,5.6H38.9c0-1.9,0.1-3.7,0.1-5.6h-0.7c0,276.6,225,501.6,501.6,501.6
		c276.6,0,501.6-225,501.6-501.6H1041z M252.5,858c4.3,4.4,9.1,7.7,14.5,9.9l-7.4,7.2c-5.2-2.4-10.1-6-14.8-10.9
		c-15.4-15.9-15.5-31.2-0.1-46.2c14.5-14.1,29.5-13.3,44.9,2.6c4.7,4.8,8.2,9.9,10.5,15.1l-7.4,7.2c-2.1-5.4-5.2-10.3-9.6-14.8
		c-10.3-10.6-20.4-11.1-30.2-1.6C242.3,836.9,242.1,847.4,252.5,858z M322.5,893.2l0.5,33l-11.7-8.3l0.3-32.8l3-4.2
		c10,4.8,16.9,4.5,20.7-0.9c2.6-3.7,1.9-7-2.3-10l-12.8-9.1l-29.8,42l-9.5-6.7l35.7-50.2l22.8,16.2c10.3,7.3,12.2,15.4,5.8,24.4
		C340.9,892.7,333.3,894.9,322.5,893.2z M404.9,909.3l-27.9-13.3l-6.7,14l26.5,12.6l-4.4,9.2l-26.7-12.7l-6.9,14.6l28.5,13.6l-4.3,9
		L344.6,938l26.5-55.7l38.1,18.1L404.9,909.3z M471.4,932.6c-4.5-3.6-9.8-6.2-15.7-7.8c-14.3-3.9-23.2,0.8-26.8,14
		c-3.9,14.3,1.3,23.4,15.6,27.2c6,1.6,11.8,2,17.5,1.2l-2.7,10c-5.7,0.6-11.7-0.1-18.3-1.8c-21.4-5.8-29.2-19-23.7-39.7
		c5.3-19.6,18.6-26.4,40-20.7c6.5,1.8,12.1,4.3,16.7,7.6L471.4,932.6z M498.3,985.2l-11.3-1.4l7.6-61.2l11.3,1.4L498.3,985.2z
		 M583.9,986.4l-1.7-42.9l-15,43.6l-9.7,0.4l-18.8-42.2l1.7,42.9l-10.6,0.4l-2.5-61.6l11.8-0.5l22.8,45.9l18.6-47.6l11.4-0.5
		l2.5,61.6L583.9,986.4z M625.6,980l-12.4-60.4l11.2-2.3l12.4,60.4L625.6,980z M666.3,970.6l-20.2-58.2l39.9-13.9l3.2,9.3L660,918
		l5.1,14.7l27.8-9.6l3.4,9.6l-27.9,9.7l5.3,15.3l29.8-10.4l3.3,9.4L666.3,970.6z M772.2,922.6l-51.1-23.4l22.9,39.7l-9.5,5.5
		L703.7,891l9.9-5.7l50.6,22.6L741.8,869l9.5-5.5l30.8,53.4L772.2,922.6z M816.6,890.2L783,850.8l-13.5,11.5l-6.4-7.5l35.6-30.3
		l6.4,7.5l-13.5,11.5l33.5,39.4L816.6,890.2z M875.8,831c-12.4,15.3-27,16.7-43.7,4.3c-16.2-13.2-17.8-27.8-4.8-43.8
		c12.8-15.8,27.3-17,43.5-3.9C886.9,800.8,888.6,815.2,875.8,831z"/>
	<path class="st0" d="M337.2,123.7l-13.4-28C152.4,177.8,41.2,352.6,39,542.3h31.1C72.3,364.5,176.6,200.7,337.2,123.7z"/>
	<path class="st0" d="M70,547.9c0-1.9,0.1-3.7,0.1-5.6H39c0,1.9-0.1,3.7-0.1,5.6H70z"/>
	<path class="st0" d="M803,121.3l-16.3,26.4c138.3,85.4,221.4,232.6,223.3,394.6h31.1C1039.1,369.4,950.5,212.4,803,121.3z"/>
	<path class="st0" d="M1041.1,547.9c0-1.9-0.1-3.7-0.1-5.6h-31.1c0,1.9,0.1,3.7,0.1,5.6H1041.1z"/>
	<path class="st0" d="M328.1,714.4l43.9-72l32.3-13.7l54.6-74l42.8-19l81.5-67.7l101.5,112l22.6-22.8l88.3,94.8
		c15.3-34.3,23.8-72.4,23.8-112.4c0-152.8-123.9-276.8-276.8-276.8c-152.8,0-276.8,123.9-276.8,276.8
		C265.9,605.9,289.2,666.7,328.1,714.4z"/>
	<path class="st0" d="M384.8,766.9L393,674l-31.4,74.9C369,755.2,376.8,761.3,384.8,766.9z"/>
	<path class="st0" d="M621.3,798.6l-63.4-124.8l-29,142.2c4.6,0.2,9.1,0.4,13.8,0.4c91.3,0,172.2-44.2,222.6-112.4l-74.1-51.6
		l-63.4-73.6l29.9,67.7l12,74.5l-26.6,12.6L621.3,798.6z"/>
	<path class="st0" d="M520.1,815.4l3.5-107.1l-14-115.6l-57.1,208.5C474,808.7,496.7,813.5,520.1,815.4z"/>
</g>
</svg>
