<?xml version="1.0" encoding="utf-8"?>
<!-- Generator: Adobe Illustrator 25.2.1, SVG Export Plug-In . SVG Version: 6.00 Build 0)  -->
<svg version="1.1" id="Capa_1" xmlns="http://www.w3.org/2000/svg" xmlns:xlink="http://www.w3.org/1999/xlink" x="0px" y="0px"
	 viewBox="0 0 1080 1080" style="enable-background:new 0 0 1080 1080;" xml:space="preserve">
<style type="text/css">
	.st0{fill:#FFFFFF;}
</style>
<path class="st0" d="M467.8,417.7c-5.5,16.8-20.4,29-38.6,30.6c-0.6,7.5-1,15.1-1,22.8c0,77.8,31.1,148.4,81.4,200.3
	c7.7-6.1,17.2-9.9,27.8-9.9c15.8,0,29.6,8.2,37.6,20.5c34.9-19.1,65-45.8,88.2-77.8c-8.5-8.2-13.8-19.6-13.8-32.2
	c0-11.1,4.2-21.1,10.8-28.9C612.3,482.1,545,437.3,467.8,417.7z M459.8,375.5c31.4-10.6,65-16.4,100-16.4
	c53.9,0,104.6,13.6,148.8,37.5c-6.6-33.1-19.4-63.8-37.1-91.2c-39.5-22.8-85.3-35.9-134.2-35.9c-9.4,0-18.6,0.5-27.7,1.4
	c-26.2,27-47.3,59.1-61.4,94.7C452.7,368.2,456.5,371.6,459.8,375.5z M481.6,395.1c80.4,22.1,150.1,69.9,199.8,134
	c4-1.2,8.2-2,12.7-2c2.6,0,5,0.3,7.5,0.8c7.8-25,12.2-51.6,12.2-79.1c0-6.8-0.3-13.5-0.8-20.2c-44.4-28-96.9-44.2-153.1-44.2
	C532.7,384.3,506.5,388.1,481.6,395.1z M386.7,381.6c7.5-13,21.1-21.8,37-22.4c11.3-29.4,26.8-56.7,45.9-81.1
	c-63.8,16.6-118.5,56.1-154.6,109.1c21.3-3.7,43.2-5.8,65.6-5.8C382.6,381.5,384.7,381.6,386.7,381.6z M805.6,522.5
	c-17.7-28.9-40.3-54.5-66.7-75.6c0,0.6,0,1.2,0,1.8c0,31.6-5.1,62-14.5,90.4c8.8,8.2,14.4,19.8,14.4,32.8c0,12.1-4.8,23-12.6,31.1
	c13.4,29.1,23.2,60.1,28.9,92.6c32-44.2,50.9-98.5,50.9-157.3C806.1,533,805.9,527.7,805.6,522.5z M796.6,467.5
	c-13.7-50.4-41.7-94.9-79.4-128.9c9.7,23.7,16.4,48.9,19.6,75.3C759,429.1,779.1,447.2,796.6,467.5z M537.3,751
	c-14,0-26.4-6.6-34.6-16.6c-17.8,3.4-36.2,5.4-55,5.4c-39.1,0-76.3-7.9-110.3-21.9C386.7,772.6,458,807,537.3,807
	c43.1,0,83.8-10.2,119.9-28.3c-34.1-6.5-66.2-18.5-95.5-35.1C554.8,748.3,546.4,751,537.3,751z M694.1,616.7c-2.8,0-5.4-0.3-8.1-0.8
	c-26.8,38.1-62.4,69.4-104,91.1c-0.1,6.1-1.4,11.9-3.7,17.2c34.2,18.7,72.6,30.6,113.4,34.1c15.2-10.7,29.2-22.9,41.9-36.4
	c-4.3-37.5-14.4-73.3-29.4-106.3C701,616.2,697.6,616.7,694.1,616.7z M493,710.7c-0.1-1.5-0.4-2.9-0.4-4.4c0-4.8,1-9.3,2.3-13.6
	c-56.7-56.7-91.9-135-91.9-221.5c0-9.4,0.6-18.6,1.4-27.8c-3.5-1.9-6.8-4.1-9.7-6.8c-58.1,40.8-100.5,102.4-116.3,174
	c6.1,21.8,14.8,42.5,25.9,61.7c41.4,26.8,90.6,42.6,143.5,42.6C463.2,714.6,478.3,713.2,493,710.7z M382,414.7c-0.6-2.6-1-5.3-1.2-8
	c-0.1,0-0.2,0-0.2,0c-28.7,0-56.4,3.7-83.1,10.2c-18.5,36.5-29,77.7-29,121.4c0,5.7,0.2,11.4,0.6,17
	C292.3,498,331.9,449.3,382,414.7z"/>
<g>
	<path class="st0" d="M372.9,141.8l-19.2-69.3l12.8-3.5l50.5,40.4l-14-50.5l12.4-3.4l19.2,69.3l-12.8,3.5L371,86.8l14.2,51.6
		L372.9,141.8z"/>
	<path class="st0" d="M478.4,46.1l8.4,71.4l-13.2,1.6l-8.4-71.4L478.4,46.1z"/>
	<path class="st0" d="M596.7,44.4l-33.7,70.9l-14.3-0.4L520.7,42l15.8,0.5l20.5,55.7L581,43.9L596.7,44.4z"/>
	<path class="st0" d="M688.6,61.5l-2.4,11.2L651,65l-3.8,17.7l33.5,7.2l-2.5,11.6l-33.7-7.3l-4,18.4l36,7.8l-2.4,11.3l-48.8-10.6
		L640.5,51L688.6,61.5z"/>
	<path class="st0" d="M747.4,80.9L725.3,137l26.6,10.5l-4.2,10.8l-39-15.4L735.1,76L747.4,80.9z"/>
</g>
<path class="st0" d="M884.1,760.7c-12.4-7.9-22-6.4-28.9,4.5c-7.1,11.2-4.5,20.7,7.9,28.5c12.6,8,22.4,6.4,29.5-4.7
	C899.5,778.2,896.7,768.7,884.1,760.7z"/>
<path class="st0" d="M244.9,817.2c-10.9,10.2-11.8,20.1-2.8,29.7c8.8,9.4,18.6,9.1,29.5-1.1c10.7-10,11.7-19.7,2.9-29.1
	C265.5,807.1,255.7,807.2,244.9,817.2z"/>
<path class="st0" d="M1038,545.6c0,1.9,0,3.7,0,5.6h-30.9c0-1.9,0-3.7,0-5.6H873.9c0,184.3-149.9,334.2-334.2,334.2
	c-184.3,0-334.2-149.9-334.2-334.2H72.3c0,1.9-0.1,3.7-0.1,5.6H41.4c0-1.9,0-3.7,0.1-5.6h-0.6c0,275.1,223.8,498.9,498.9,498.9
	s498.9-223.8,498.9-498.9H1038z M839.8,739.4l4,15.3l-5.4,8.5l-6.3-11.7L839.8,739.4z M203.5,766.7l-23.1,14.2l-6.1-9.9l54.5-33.6
	l22.1,35.8l-8.7,5.4l-15.9-25.8l-13.7,8.5l15.1,24.5l-9,5.6L203.5,766.7z M279.8,855.1c-15.8,14.7-30.9,14.3-45.3-1.1
	c-14-15-13.4-30.2,1.8-45.6c15.9-14.8,31.1-14.3,45.7,1.3C296.5,825.2,295.7,840.3,279.8,855.1z M324.7,894.1l0.6,34.3l-12.2-8.6
	l0.2-34l3.1-4.4c10.4,5,17.6,4.6,21.5-1c2.7-3.9,1.9-7.3-2.4-10.4l-13.3-9.4l-30.9,43.7l-9.9-7l36.9-52.2l23.8,16.8
	c10.7,7.5,12.7,16,6.1,25.3C343.8,893.5,336,895.8,324.7,894.1z M410.6,968.2l-10.1-4.3l17.4-41l-33.4,34.3l-9.3-4l1.1-48l-17.4,41
	l-10.1-4.3l25-58.9l11.3,4.8l1,53.2l38.6-36.4l10.9,4.6L410.6,968.2z M493.6,986l-4.2-18.4l-21-3.6l5.8-9.5l12.7,2.2l-5.9-25.4
	l-29.6,47.5l-12-2.1l37.6-58.5l12.6,2.2l16.5,67.8L493.6,986z M534.5,988.8l-1.1-64l11.9-0.2l1,53.7l25.4-0.5l0.2,10.3L534.5,988.8z
	 M600.8,984.8l-9.4-63.3l11.7-1.7l9.4,63.3L600.8,984.8z M642.7,977.6l-2.9-9.9l21.9-51.7l-33.3,9.7l-2.9-9.9l44.7-13.1l2.9,9.9
	L652.6,964l32.7-9.6l2.9,9.9L642.7,977.6z M760.2,930.4l-14.6-12.1l-18.8,9.9l-1.2-11l11.4-6L717,894.5l5.3,55.7l-10.8,5.6
	l-5.6-69.3l11.3-5.9l54.3,43.9L760.2,930.4z M820.4,887.4c-17.7,14.6-33.7,13.3-47.8-3.8c-13.4-16.2-11.2-31.7,6.5-46.3
	c5.4-4.5,10.9-7.6,16.5-9.5l6.8,8.3c-5.8,1.7-11.1,4.5-16.1,8.6c-11.9,9.8-13.3,20.1-4.3,31.1c9.8,11.9,20.6,12.9,32.5,3.1
	c5-4.1,8.8-8.8,11.5-14.2l6.8,8.3C830,878.2,825.8,882.9,820.4,887.4z M855.2,853.3l-47.6-42.9l7.9-8.8l47.6,42.9L855.2,853.3z
	 M901.2,794.6c-11,17.3-25.9,20.5-44.6,9.7c-18.3-11.7-21.7-26.5-10.2-44.6c11.3-17.8,26.2-20.9,44.5-9.2
	C909.1,762.1,912.6,776.8,901.2,794.6z M948,696l-56.4,15.2l44.7,16.5l-4,10.7l-60-22.2l4.1-11.1l55.5-15.5l-43.8-16.2l4-10.7
	l60,22.2L948,696z"/>
<path class="st0" d="M338,129.4l-13.4-27.8C154.2,183.1,43.6,357,41.4,545.6h30.9C74.5,368.8,178.2,205.9,338,129.4z"/>
<path class="st0" d="M72.3,551.2c0-1.9,0-3.7,0.1-5.6H41.4c0,1.9-0.1,3.7-0.1,5.6H72.3z"/>
<path class="st0" d="M801.3,126.9L785,153.2c137.5,84.9,220.2,231.3,222.1,392.4h30.9C1036.1,373.7,947.9,217.5,801.3,126.9z"/>
<path class="st0" d="M1038.1,551.2c0-1.9,0-3.7,0-5.6h-30.9c0,1.9,0,3.7,0,5.6H1038.1z"/>
</svg>
