<?xml version="1.0" encoding="utf-8"?>
<!-- Generator: Adobe Illustrator 25.2.1, SVG Export Plug-In . SVG Version: 6.00 Build 0)  -->
<svg version="1.1" id="Capa_1" xmlns="http://www.w3.org/2000/svg" xmlns:xlink="http://www.w3.org/1999/xlink" x="0px" y="0px"
	 viewBox="0 0 1080 1080" style="enable-background:new 0 0 1080 1080;" xml:space="preserve">
<style type="text/css">
	.st0{clip-path:url(#SVGID_2_);}
	.st1{fill:#FFFFFF;}
	.st2{fill-rule:evenodd;clip-rule:evenodd;fill:#FFFFFF;}
</style>
<g>
	<g>
		<defs>
			<circle id="SVGID_1_" cx="539" cy="536.7" r="285.8"/>
		</defs>
		<clipPath id="SVGID_2_">
			<use xlink:href="#SVGID_1_"  style="overflow:visible;"/>
		</clipPath>
		<g class="st0">
			<g>
				<polygon class="st1" points="447.1,659.4 432.3,666.5 418.5,403.7 432.6,402.9 				"/>
				<path class="st1" d="M550.8,373.7c1.8,1.9,4.2,3.6,7.1,5.2c11.3,6,19.1,13.4,20.4,19.4c0.1,0.4,0.1,0.8,0.2,1.2
					c0.1,1.4-0.3,2.7-1.1,3.7c-3.4,4.3-11.7,6.4-24.6,6.2C552.6,406.9,551.3,382.8,550.8,373.7z"/>
				<path class="st1" d="M583.4,411.4L583.4,411.4L583.4,411.4c-16.8,16.3-72.3,5.4-126.2-5.2c0,0-10.9-2.1-14.9-2.9
					c0.3,5.4,9.8,176.8,10,180.1c2.8,0.5,16,3.1,16,3.1c51.7,10.2,110.3,21.7,123.3,5.2c0.9-1.1,1.4-2.4,1.5-3.8L583.4,411.4z"/>
				<path class="st1" d="M598,346c-20.3-1-35.7,2.3-41.1,9c-1.7,2.1-2.3,4.3-1.7,6.7c1,3.8,4.8,7.6,10.8,10.8
					c14.6,7.7,24.4,17.3,26.2,25.7c0.1,0.5,6.3,109.3,6.3,109.3c3.1,0,6.5,0.1,8.9,0.2c52,2.6,84.2-5,98.6-23.2
					c-0.1-1.5-8.4-150.9-8.9-160C680.8,341.4,648.3,348.5,598,346z"/>
			</g>
			<path class="st2" d="M195.1,932.2l66-91.2l48.3-60.5l28.9-51.8l14.6-6.8l23.3-34.4l20.4-9.9l46.1-41.8l42.3,50.9l9.5-10.5
				l52.5,61.7l128.1,194.3H195.1L195.1,932.2z M274.8,853.4l49.1-61.4l26.7-47.9l13.8-6.4l23.4-34.6l18.3-8.9l34.9-31.7l43.4,52.4
				l9.7-10.7l39.1,45.9l44.5,67.5l-90.6-68.9L460,714.4l12.8,31.7l5.1,34.8l-11.4,5.9l-9.2,30.4l-27.1-58.3l-16.9,90.4l2.2-74.3
				l-6-54l-27.2,108.4l-32,44.4l9.2-114.8l-29,75.6l-49.7,50.2l15.6-38.6l-37.5,29.3L274.8,853.4L274.8,853.4z"/>
		</g>
	</g>
	<g>
		<path class="st1" d="M370.4,131l-19.5-70.6l13.1-3.6l51.5,41.2l-14.2-51.4l12.6-3.5l19.5,70.6l-13.1,3.6L368.5,75l14.5,52.5
			L370.4,131z"/>
		<path class="st1" d="M477.7,33.6l8.5,72.7l-13.5,1.6l-8.5-72.8L477.7,33.6z"/>
		<path class="st1" d="M598.2,31.8L563.8,104l-14.6-0.5l-28.4-74.2l16.1,0.5l20.9,56.8l24.4-55.4L598.2,31.8z"/>
		<path class="st1" d="M691.8,49.2l-2.5,11.4l-35.8-7.8l-3.9,18l34.1,7.4l-2.6,11.9l-34.3-7.4l-4.1,18.8l36.7,7.9l-2.5,11.5
			l-49.7-10.7l15.5-71.6L691.8,49.2z"/>
		<path class="st1" d="M751.7,69l-22.5,57.2l27.1,10.7l-4.3,11l-39.7-15.6L739.1,64L751.7,69z"/>
	</g>
	<path class="st1" d="M806.6,836.1c-9.3,8.9-9.1,18.5,0.8,28.9c10,10.5,19.7,11.3,29,2.4c9.1-8.7,8.6-18.3-1.4-28.8
		C825.2,828.3,815.7,827.4,806.6,836.1z"/>
	<path class="st1" d="M426.8,922.2l-12.3-4l-13.1,40.3l12.3,4c12.3,4,20.8-1.3,25.6-15.8C443.3,934.4,439.1,926.2,426.8,922.2z"/>
	<path class="st1" d="M1047.7,542.3c0,1.9,0.1,3.8,0.1,5.7h-31.5c0-1.9-0.1-3.8-0.1-5.7H880.5c0,187.7-152.7,340.5-340.5,340.5
		c-187.7,0-340.5-152.7-340.5-340.5H63.8c0,1.9-0.1,3.8-0.1,5.7H32.2c0-1.9,0.1-3.8,0.1-5.7h-0.7c0,280.3,228,508.3,508.3,508.3
		s508.3-228,508.3-508.3H1047.7z M272.5,897.1l29.1-32.3l-41.7,21l-7.3-6.6l16.3-43.9l-29.1,32.3l-8-7.2l41.8-46.4l8.9,8l-16,49.4
		l47.1-21.3l8.6,7.7l-41.8,46.4L272.5,897.1z M361.2,953.8l-10.8-6.2l2.2-18.3l-18-10.2l8.4-6.8l10.9,6.2l3-25.2L314.1,927
		l-10.3-5.9l53.9-41.2l10.8,6.2L361.2,953.8z M450.3,950.4c-6.8,20.9-20,28.1-39.7,21.7l-23.3-7.6l19.3-59.4l23.3,7.6
		C449.5,919.1,456.3,931.6,450.3,950.4z M526,969.5c-1.9,16.6-11.7,23.8-29.5,21.8c-17.8-2-25.8-11.3-23.9-27.8l4.2-37.7l11.5,1.3
		l-4.3,37.7c-1.1,9.9,3.4,15.4,13.5,16.6c10.1,1.1,15.8-3.2,16.9-13.1l4.2-37.7l11.5,1.3L526,969.5z M798.1,808l0.3,15.4l-7.1,6.8
		l-3.3-12.5L798.1,808z M594.2,991l-21.1-25.6l-0.4-5.3c10.9-2.8,16.1-7.5,15.5-14.2c-0.4-4.6-3.1-6.7-8.3-6.3l-15.8,1.2l4.1,52
		l-11.8,0.9l-4.9-62.2l28.3-2.2c12.7-1,19.5,4.1,20.4,15.2c0.6,7.5-3.9,14.1-13.4,19.9l21.8,25.4L594.2,991z M680.2,972.4
		l-11.4-14.5l-20,5.5l1.2-10.7l12.1-3.4l-15.7-20l-6.4,54.2l-11.5,3.2l8.9-67.3l12-3.3l42.8,53L680.2,972.4z M746.3,944.5
		c-20,10.1-34.9,5.4-44.7-14c-9.2-18.3-3.8-32.5,16.2-42.6c6.1-3.1,12-4.9,17.8-5.5l4.7,9.4c-5.9,0.3-11.6,1.9-17.2,4.7
		c-13.4,6.7-17,16.3-10.8,28.6c6.7,13.4,16.8,16.7,30.2,10c5.6-2.8,10.3-6.5,14-11l4.7,9.4C757.5,937.7,752.4,941.4,746.3,944.5z
		 M786.7,919.8l-35.6-51.3l9.5-6.6l35.6,51.3L786.7,919.8z M843.4,874.7c-14.4,13.8-29.3,13.4-44.5-1.2
		c-14.6-15.3-14.4-30.2,0.8-44.6c14.9-14.2,29.6-13.7,44.3,1.7C858.4,845.8,858.3,860.5,843.4,874.7z M910.6,792.1l-57,1l38.4,26.2
		l-6.3,9.2l-51.6-35.2l6.5-9.6l56.2-1.5l-37.6-25.7l6.3-9.2l51.6,35.2L910.6,792.1z"/>
	<path class="st1" d="M334.5,118.2l-13.6-28.4C147.3,173,34.5,350.2,32.3,542.3h31.5C66,362.2,171.7,196.2,334.5,118.2z"/>
	<path class="st1" d="M63.7,548c0-1.9,0.1-3.8,0.1-5.7H32.3c0,1.9-0.1,3.8-0.1,5.7H63.7z"/>
	<path class="st1" d="M806.5,115.7L790,142.5c140.1,86.5,224.3,235.7,226.3,399.8h31.5C1045.8,367.2,955.9,208,806.5,115.7z"/>
	<path class="st1" d="M1047.8,548c0-1.9-0.1-3.8-0.1-5.7h-31.5c0,1.9,0.1,3.8,0.1,5.7H1047.8z"/>
	<g>
		<path class="st1" d="M539.1,828.4C378.6,828.4,248,697.8,248,537.3c0-160.4,130.6-290.9,291.1-290.9
			c160.4,0,290.9,130.5,290.9,290.9C830,697.8,699.5,828.4,539.1,828.4z M539.1,267.9c-148.6,0-269.6,120.8-269.6,269.4
			c0,148.6,120.9,269.6,269.6,269.6c148.5,0,269.4-120.9,269.4-269.6C808.5,388.8,687.6,267.9,539.1,267.9z"/>
	</g>
</g>
</svg>
