<?xml version="1.0" encoding="utf-8"?>
<!-- Generator: Adobe Illustrator 25.2.1, SVG Export Plug-In . SVG Version: 6.00 Build 0)  -->
<svg version="1.1" id="Capa_1" xmlns="http://www.w3.org/2000/svg" xmlns:xlink="http://www.w3.org/1999/xlink" x="0px" y="0px"
	 viewBox="0 0 1080 1080" style="enable-background:new 0 0 1080 1080;" xml:space="preserve">
<style type="text/css">
	.st0{fill:#FFFFFF;}
</style>
<g>
	<g>
		<g>
			<path class="st0" d="M540.8,794.3c-145.4,0-263.7-118.3-263.7-263.7c0-145.3,118.3-263.6,263.7-263.6
				c145.3,0,263.5,118.2,263.5,263.6C804.4,676,686.1,794.3,540.8,794.3z M540.8,305.3c-124.3,0-225.4,101.1-225.4,225.3
				c0,124.3,101.1,225.4,225.4,225.4c124.2,0,225.2-101.1,225.2-225.4C766.1,406.4,665,305.3,540.8,305.3z"/>
		</g>
		<g>
			<path class="st0" d="M540.8,720.1c-104.5,0-189.5-85-189.5-189.5c0-104.4,85-189.4,189.5-189.4c104.4,0,189.4,85,189.4,189.4
				C730.2,635.1,645.2,720.1,540.8,720.1z M540.8,368.8c-89.3,0-162,72.6-162,161.9c0,89.3,72.7,162,162,162
				c89.2,0,161.8-72.7,161.8-162C702.6,441.4,630,368.8,540.8,368.8z"/>
		</g>
		<g>
			<path class="st0" d="M529.8,406.3c1.7,5.1,6.4,8.4,11.7,8.4c5.4,0,10.1-3.4,11.7-8.5l23.1-69.7c1.1-3.8,0.4-7.9-1.9-11.1
				c-2.4-3.2-6-5-9.9-5h-45.9c-4,0-7.7,1.9-10,5.2c-2.3,3.3-2.9,7.5-1.6,11.1L529.8,406.3z"/>
			<path class="st0" d="M413,515.3c-23.1-7.5-46.3-15.1-69.6-22.8l-3.6-0.5c-6.9,0-12.5,5.6-12.5,12.5c0.1,15.2,0.1,30.5,0.1,45.7
				c0,6.8,5.5,12.4,12.4,12.4l73.2-23.7c5-1.6,8.5-6.2,8.6-11.5C421.6,521.8,418.2,517,413,515.3z"/>
			<path class="st0" d="M632,608.4l-51.7-88.2c-10.2-17.7-11-18.5-27.1-30.5l-93.3-69.9c-8.7-6.7-10.6-8-14-8l-4.6,0.1l-2.2,3.8
				c-2.5,4.4-0.8,7.2,4.9,16.6c1.6,2.6,3.5,5.8,5.7,9.6c15.9,27.2,31.9,54.4,47.8,81.4c2,3.4,3.7,6.4,5.2,9.2
				c7.8,14.1,12.5,22.6,31.4,33.9c21.2,12.7,39.5,27.5,57.3,41.9c7.6,6.1,15.1,12.3,23,18.3l4.7,3.6c12.8,9.8,14.7,11.3,18.5,11.3
				l4.7-0.1l2.2-3.8c2.6-4.6,0.8-7.4-5.7-18.1C636.7,616.3,634.5,612.7,632,608.4z M530.9,517.1c0.9-0.9,2.3-1.4,4-1.4
				c3.9,0,8.8,2.3,12.5,6c6.1,6,7.6,13.7,4.8,16.5c-1.1,1.2-2.9,1.4-4.2,1.4c-4,0-8.7-2.3-12.4-5.9
				C529.5,527.6,528.1,519.9,530.9,517.1z"/>
			<path class="st0" d="M741.8,491.1l-3.8,0.6c-23.2,7.6-46.3,15.3-69.6,22.8c-5.1,1.7-8.4,6.5-8.3,11.9c0.1,5.3,3.5,10,8.4,11.5
				c12.8,4.3,25.6,8.6,38.5,12.9l30.8,10.3c1.3,0.5,2.7,0.7,4.1,0.7c3.3,0,6.3-1.3,8.6-3.6c2.3-2.3,3.6-5.4,3.6-8.7
				c0.1-15.4,0.1-30.7,0.1-46C754.2,496.7,748.6,491.1,741.8,491.1z"/>
			<path class="st0" d="M553.4,655.2c-1.7-5.1-6.4-8.4-11.7-8.4c-5.4,0-10.1,3.4-11.7,8.4c-7.6,22.8-15.1,45.6-23.1,69.7
				c-1.1,3.7-0.4,7.9,1.9,11c2.4,3.2,6,5,10,5h45.8c4,0,7.6-1.8,10-5c2.3-3.1,3-7.3,1.8-11.2L553.4,655.2z"/>
		</g>
	</g>
	<g>
		<path class="st0" d="M375.5,143.4l-18.9-68.5l12.7-3.5l49.9,39.9l-13.8-49.9l12.2-3.4l18.9,68.5l-12.7,3.5l-50.2-41l14.1,50.9
			L375.5,143.4z"/>
		<path class="st0" d="M479.7,48.9l8.2,70.5l-13.1,1.5l-8.3-70.5L479.7,48.9z"/>
		<path class="st0" d="M596.4,47.2l-33.3,70l-14.1-0.4l-27.6-71.9l15.6,0.5l20.3,55l23.6-53.7L596.4,47.2z"/>
		<path class="st0" d="M687.2,64.1l-2.4,11.1L650,67.6l-3.8,17.5l33.1,7.2l-2.5,11.5l-33.3-7.2l-3.9,18.2l35.6,7.7l-2.4,11.2
			l-48.2-10.4l15-69.4L687.2,64.1z"/>
		<path class="st0" d="M745.3,83.3l-21.8,55.5l26.2,10.3l-4.2,10.6L707,144.5l26-66.1L745.3,83.3z"/>
	</g>
	<path class="st0" d="M1032.3,542.2c0,1.8,0.1,3.7,0.1,5.5h-30.5c0-1.8-0.1-3.7-0.1-5.5H870.2c0,182.1-148.1,330.2-330.2,330.2
		c-182,0-330.2-148.1-330.2-330.2H78.3c0,1.8-0.1,3.7-0.1,5.5H47.6c0-1.8,0.1-3.7,0.1-5.5h-0.7c0,271.8,221.1,492.9,492.9,492.9
		s492.9-221.1,492.9-492.9H1032.3z M297.9,899l-19.2-14l35.6-49l19.2,14c16.2,11.8,18.7,25.4,7.5,40.8
		C328.5,908.1,314.1,910.8,297.9,899z M406.8,902.7l-27.4-13l-6.6,13.8l26.1,12.4l-4.3,9.1l-26.2-12.5l-6.8,14.3l28,13.4l-4.2,8.8
		l-38-18.1l26-54.7l37.4,17.8L406.8,902.7z M466.5,924.2c-5.2-3.8-11.1-6.6-17.7-8.4c-9.8-2.7-15.5-1.2-17.1,4.5
		c-1.2,4.4,0.5,7.2,5.3,8.5l9.1,2.5c12.7,3.5,17.5,10.7,14.5,21.6c-3.4,12.2-13.2,16.1-29.3,11.6c-7.4-2.1-13.7-4.8-19-8.4l2.7-9.8
		c5.2,3.8,11.6,6.7,18.9,8.8c8.9,2.5,14.3,0.7,15.9-5.2c1.2-4.4-0.9-7.3-6.4-8.8l-9.1-2.5c-11.9-3.3-16.4-10.4-13.4-21.3
		c3.3-12,13.5-15.6,30.5-10.9c6.5,1.8,12.5,4.5,17.8,8L466.5,924.2z M533.4,937c-1.2,12.3-10.4,18.9-27.4,19.8l-0.6-10.1
		c10.3-0.8,15.7-4.3,16.4-10.5c0.5-5-1.8-7.7-6.8-8.2l-15.1-1.5l-5,50.5l-11.2-1.1l5.9-60.3l27,2.6
		C528.9,919.4,534.5,925.6,533.4,937z M555.2,980.1l-4.3-60.4l41.4-3l0.7,9.6l-30.2,2.2l1.1,15.2l28.8-2.1l0.7,10l-28.9,2.1
		l1.1,15.8l31-2.2l0.7,9.7L555.2,980.1z M655.2,965.5c-20.7,5.3-33.7-2.3-38.9-22.7c-4.9-19.3,3.2-31.6,24.3-37
		c6.4-1.6,12.4-2.1,18-1.5l2.5,9.9c-5.6-0.9-11.4-0.6-17.3,0.9c-14.1,3.6-19.5,11.9-16.2,24.9c3.6,14.1,12,19.4,25.3,16.1
		c2-0.5,4.1-1.4,6.5-2.7l-4.3-17.1l10.9-2.8l6.2,24.4C668,961.2,662.4,963.7,655.2,965.5z M725.1,939.7c-15.7,7.5-27,3.9-33.9-10.7
		l-15.8-33.2l10.1-4.8l15.8,33.2c4.1,8.7,10.7,11,19.6,6.7c8.9-4.2,11.3-10.7,7.2-19.4l-15.8-33.2l10.1-4.8l15.8,33.2
		C745.1,921.2,740.8,932.2,725.1,939.7z M775.7,911.2l-35.7-48.9l33.5-24.5l5.7,7.8l-24.5,17.9l9,12.3l23.3-17l5.9,8.1L769.5,884
		l9.4,12.8l25.1-18.3l5.7,7.9L775.7,911.2z"/>
	<path class="st0" d="M327.8,857.9l-10.1-7.4l-24.2,33.2l10.1,7.4c10.2,7.4,19.6,5.1,28.3-6.8C339.4,874.1,338,865.3,327.8,857.9z"
		/>
	<path class="st0" d="M340.7,131l-13.2-27.5C159.2,184.1,49.9,355.9,47.7,542.2h30.5C80.4,367.6,182.9,206.6,340.7,131z"/>
	<path class="st0" d="M78.2,547.7c0-1.8,0.1-3.7,0.1-5.5H47.7c0,1.8-0.1,3.7-0.1,5.5H78.2z"/>
	<path class="st0" d="M798.4,128.6l-16,26c135.9,83.9,217.5,228.5,219.4,387.7h30.5C1030.4,372.4,943.3,218.1,798.4,128.6z"/>
	<path class="st0" d="M1032.4,547.7c0-1.8-0.1-3.7-0.1-5.5h-30.5c0,1.8,0.1,3.7,0.1,5.5H1032.4z"/>
</g>
</svg>
